<svg width="60" height="60" viewBox="0 0 60 60" fill="none" xmlns="http://www.w3.org/2000/svg">
<path d="M7.98552 32.988C5.88892 29.4536 5.15467 25.2754 5.92066 21.238C6.68664 17.2006 8.90016 13.5816 12.1456 11.0608C15.391 8.53987 19.445 7.29045 23.5465 7.54711C27.6479 7.80377 31.5145 9.54884 34.4204 12.4547C37.3262 15.3605 39.0713 19.2271 39.3279 23.3285C39.5846 27.43 38.3352 31.484 35.8144 34.7294C33.2935 37.9748 29.6746 40.1884 25.6371 40.9544C21.5997 41.7204 17.4215 40.9862 13.8872 38.8896L13.8872 38.8894L8.05889 40.5546C7.81776 40.6235 7.56259 40.6267 7.31982 40.5638C7.07706 40.5009 6.85553 40.3742 6.6782 40.1969C6.50087 40.0195 6.37419 39.798 6.31128 39.5552C6.24837 39.3125 6.25153 39.0573 6.32043 38.8162L7.98566 32.9879L7.98552 32.988Z" stroke="#4554E5" stroke-width="2" stroke-linecap="round" stroke-linejoin="round"/>
<path d="M21.5762 41.2248C22.4057 43.5798 23.7472 45.7216 25.5041 47.4957C27.2609 49.2699 29.3894 50.6324 31.7361 51.485C34.0829 52.3376 36.5895 52.6592 39.0755 52.4266C41.5615 52.1939 43.9649 51.4128 46.1127 50.1396L46.1127 50.1394L51.941 51.8047C52.1821 51.8735 52.4373 51.8767 52.6801 51.8138C52.9228 51.7509 53.1443 51.6242 53.3217 51.4469C53.499 51.2695 53.6257 51.048 53.6886 50.8053C53.7515 50.5625 53.7483 50.3073 53.6794 50.0662L52.0142 44.2379L52.0143 44.238C53.4939 41.7427 54.3054 38.9082 54.3706 36.008C54.4357 33.1077 53.7523 30.2397 52.3863 27.6805C51.0202 25.1213 49.0177 22.9573 46.5718 21.3974C44.126 19.8375 41.3193 18.9342 38.4228 18.7748" stroke="#4554E5" stroke-width="2" stroke-linecap="round" stroke-linejoin="round"/>
</svg>
