<svg width="60" height="60" viewBox="0 0 60 60" fill="none" xmlns="http://www.w3.org/2000/svg">
<path d="M45.938 50.625C49.5624 50.625 52.5005 47.6869 52.5005 44.0625C52.5005 40.4381 49.5624 37.5 45.938 37.5C42.3136 37.5 39.3755 40.4381 39.3755 44.0625C39.3755 47.6869 42.3136 50.625 45.938 50.625Z" stroke="#4554E5" stroke-width="2" stroke-linecap="round" stroke-linejoin="round"/>
<path d="M45.9381 37.5L45.9377 28.0971C45.9376 25.1136 44.7523 22.2523 42.6426 20.1426L33.75 11.25" stroke="#4554E5" stroke-width="2" stroke-linecap="round" stroke-linejoin="round"/>
<path d="M33.75 20.625V11.25H43.125" stroke="#4554E5" stroke-width="2" stroke-linecap="round" stroke-linejoin="round"/>
<path d="M14.0625 22.5C17.6869 22.5 20.625 19.5619 20.625 15.9375C20.625 12.3131 17.6869 9.375 14.0625 9.375C10.4381 9.375 7.5 12.3131 7.5 15.9375C7.5 19.5619 10.4381 22.5 14.0625 22.5Z" stroke="#4554E5" stroke-width="2" stroke-linecap="round" stroke-linejoin="round"/>
<path d="M14.0625 22.5L14.0629 31.9029C14.063 34.8864 15.2483 37.7477 17.3579 39.8574L26.2506 48.75" stroke="#4554E5" stroke-width="2" stroke-linecap="round" stroke-linejoin="round"/>
<path d="M26.2505 39.375V48.75H16.8755" stroke="#4554E5" stroke-width="2" stroke-linecap="round" stroke-linejoin="round"/>
</svg>
