<svg width="56" height="43" viewBox="0 0 56 43" fill="none" xmlns="http://www.w3.org/2000/svg">
<path d="M14.9899 9.31845C14.1993 9.5659 13.7589 10.4074 14.0064 11.198C14.2538 11.9886 15.0954 12.4289 15.886 12.1815L14.9899 9.31845ZM28 8.87497L27.9895 10.3749C27.9965 10.375 28.0035 10.375 28.0105 10.3749L28 8.87497ZM40.1139 12.1814C40.9045 12.4289 41.746 11.9886 41.9935 11.1979C42.2409 10.4073 41.8006 9.56583 41.01 9.31838L40.1139 12.1814ZM41.0097 34.6816C41.8003 34.4342 42.2406 33.5927 41.9932 32.802C41.7457 32.0114 40.9042 31.5711 40.1136 31.8186L41.0097 34.6816ZM27.9998 35.125L28.0103 33.625C28.0033 33.625 27.9963 33.625 27.9893 33.625L27.9998 35.125ZM15.886 31.8185C15.0954 31.5711 14.2538 32.0114 14.0064 32.802C13.7589 33.5926 14.1993 34.4341 14.9899 34.6816L15.886 31.8185ZM35.6799 34.006C35.3094 33.265 34.4084 32.9647 33.6674 33.3352C32.9264 33.7057 32.6261 34.6067 32.9966 35.3476L35.6799 34.006ZM37.1566 40.3137L38.5004 39.6472L38.4983 39.6428L37.1566 40.3137ZM39.2639 41.3002L39.6127 42.7591L39.6201 42.7573L39.2639 41.3002ZM53.5843 34.3039L52.6063 33.1665L52.6003 33.1718L53.5843 34.3039ZM54.1636 32.3375L55.602 31.9121L55.6004 31.9065L54.1636 32.3375ZM46.201 5.79546L47.6378 5.36444L47.6376 5.36399L46.201 5.79546ZM45.1167 4.59802L45.6881 3.21112L45.685 3.20987L45.1167 4.59802ZM38.164 2.44578L37.843 3.91103L37.8487 3.91227L38.164 2.44578ZM35.9799 3.68479L34.5575 3.20856L34.5568 3.21045L35.9799 3.68479ZM32.6881 8.81661C32.4261 9.60253 32.8509 10.452 33.6368 10.714C34.4227 10.9759 35.2722 10.5512 35.5342 9.76529L32.6881 8.81661ZM23.0031 35.3476C23.3736 34.6066 23.0733 33.7056 22.3323 33.3351C21.5913 32.9646 20.6903 33.265 20.3198 34.0059L23.0031 35.3476ZM18.843 40.3137L17.5014 39.6428L17.4992 39.6472L18.843 40.3137ZM16.7357 41.3002L16.3795 42.7573L16.3869 42.7591L16.7357 41.3002ZM2.41541 34.3039L3.39945 33.1718L3.39333 33.1665L2.41541 34.3039ZM1.83605 32.3376L0.399304 31.9066L0.39766 31.9121L1.83605 32.3376ZM9.79866 5.79545L8.36206 5.36398L8.36192 5.36443L9.79866 5.79545ZM10.883 4.59801L10.3147 3.20985L10.3116 3.21111L10.883 4.59801ZM17.8356 2.44578L18.1509 3.91228L18.1567 3.91101L17.8356 2.44578ZM20.0198 3.68479L21.4428 3.21045L21.4422 3.20856L20.0198 3.68479ZM20.4655 9.76529C20.7275 10.5512 21.5769 10.9759 22.3629 10.714C23.1488 10.452 23.5735 9.60253 23.3115 8.81661L20.4655 9.76529ZM21.8125 25.75C21.8125 26.4749 21.2248 27.0625 20.5 27.0625V30.0625C22.8817 30.0625 24.8125 28.1317 24.8125 25.75H21.8125ZM20.5 27.0625C19.7751 27.0625 19.1875 26.4749 19.1875 25.75H16.1875C16.1875 28.1317 18.1182 30.0625 20.5 30.0625V27.0625ZM19.1875 25.75C19.1875 25.0251 19.7751 24.4375 20.5 24.4375V21.4375C18.1182 21.4375 16.1875 23.3683 16.1875 25.75H19.1875ZM20.5 24.4375C21.2248 24.4375 21.8125 25.0251 21.8125 25.75H24.8125C24.8125 23.3683 22.8817 21.4375 20.5 21.4375V24.4375ZM36.8125 25.75C36.8125 26.4749 36.2248 27.0625 35.5 27.0625V30.0625C37.8817 30.0625 39.8125 28.1317 39.8125 25.75H36.8125ZM35.5 27.0625C34.7751 27.0625 34.1875 26.4749 34.1875 25.75H31.1875C31.1875 28.1317 33.1182 30.0625 35.5 30.0625V27.0625ZM34.1875 25.75C34.1875 25.0251 34.7751 24.4375 35.5 24.4375V21.4375C33.1182 21.4375 31.1875 23.3683 31.1875 25.75H34.1875ZM35.5 24.4375C36.2248 24.4375 36.8125 25.0251 36.8125 25.75H39.8125C39.8125 23.3683 37.8817 21.4375 35.5 21.4375V24.4375ZM15.886 12.1815C19.8025 10.9556 23.8857 10.3462 27.9895 10.3749L28.0105 7.375C23.5958 7.34408 19.2031 7.99972 14.9899 9.31845L15.886 12.1815ZM28.0105 10.3749C32.1142 10.3462 36.1974 10.9556 40.1139 12.1814L41.01 9.31838C36.7968 7.9997 32.4042 7.34408 27.9895 7.375L28.0105 10.3749ZM40.1136 31.8186C36.1972 33.0443 32.114 33.6538 28.0103 33.625L27.9893 36.625C32.4039 36.6559 36.7965 36.0003 41.0097 34.6816L40.1136 31.8186ZM27.9893 33.625C23.8856 33.6538 19.8024 33.0443 15.886 31.8185L14.9899 34.6816C19.2031 36.0003 23.5957 36.6559 28.0103 36.625L27.9893 33.625ZM32.9966 35.3476L35.815 40.9845L38.4983 39.6428L35.6799 34.006L32.9966 35.3476ZM35.8128 40.9801C36.1514 41.6629 36.7116 42.2106 37.4019 42.5337L38.6738 39.8167C38.5985 39.7815 38.5374 39.7217 38.5004 39.6472L35.8128 40.9801ZM37.4019 42.5337C38.0921 42.8568 38.8715 42.9363 39.6127 42.7591L38.9151 39.8413C38.8342 39.8606 38.7491 39.852 38.6738 39.8167L37.4019 42.5337ZM39.6201 42.7573C45.5577 41.3057 50.7442 38.7598 54.5683 35.436L52.6003 33.1718C49.2021 36.1254 44.4727 38.4826 38.9077 39.8431L39.6201 42.7573ZM54.5622 35.4413C55.0571 35.0158 55.4186 34.4563 55.6031 33.8302L52.7254 32.9823C52.7043 33.0539 52.6629 33.1178 52.6064 33.1665L54.5622 35.4413ZM55.6031 33.8302C55.7875 33.2041 55.7872 32.538 55.602 31.9121L52.7252 32.763C52.7464 32.8346 52.7465 32.9107 52.7254 32.9823L55.6031 33.8302ZM55.6004 31.9065L47.6378 5.36444L44.7643 6.22648L52.7269 32.7686L55.6004 31.9065ZM47.6376 5.36399C47.4931 4.88281 47.2431 4.43989 46.9059 4.06748L44.6822 6.08119C44.7201 6.12305 44.7482 6.17284 44.7644 6.22694L47.6376 5.36399ZM46.9059 4.06748C46.5686 3.69506 46.1526 3.40252 45.6881 3.21113L44.5452 5.98492C44.5975 6.00644 44.6442 6.03933 44.6822 6.08119L46.9059 4.06748ZM45.685 3.20987C43.3536 2.25531 40.9423 1.50888 38.4794 0.979299L37.8487 3.91227C40.1387 4.40465 42.3806 5.09866 44.5483 5.98618L45.685 3.20987ZM38.4851 0.98055C37.6709 0.80213 36.8195 0.930927 36.0945 1.34219L37.5747 3.95159C37.6561 3.90545 37.7516 3.89099 37.843 3.91101L38.4851 0.98055ZM36.0945 1.34219C35.3695 1.75345 34.8221 2.41816 34.5575 3.20856L37.4022 4.16102C37.4319 4.07233 37.4934 3.99774 37.5747 3.95159L36.0945 1.34219ZM34.5568 3.21045L32.6881 8.81661L35.5342 9.76529L37.4029 4.15913L34.5568 3.21045ZM20.3198 34.0059L17.5014 39.6428L20.1847 40.9845L23.0031 35.3476L20.3198 34.0059ZM17.4992 39.6472C17.4623 39.7217 17.4012 39.7814 17.3258 39.8167L18.5978 42.5337C19.288 42.2106 19.8482 41.6629 20.1868 40.9801L17.4992 39.6472ZM17.3258 39.8167C17.2505 39.852 17.1654 39.8606 17.0846 39.8413L16.3869 42.7591C17.1281 42.9363 17.9076 42.8568 18.5978 42.5337L17.3258 39.8167ZM17.092 39.8431C11.527 38.4826 6.79754 36.1254 3.39943 33.1718L1.43139 35.4361C5.25545 38.7598 10.442 41.3057 16.3795 42.7573L17.092 39.8431ZM3.39333 33.1665C3.33675 33.1179 3.29542 33.0539 3.27433 32.9823L0.396642 33.8302C0.581116 34.4563 0.942562 35.0158 1.4375 35.4413L3.39333 33.1665ZM3.27433 32.9823C3.25324 32.9108 3.25328 32.8346 3.27445 32.7631L0.39766 31.9121C0.212521 32.538 0.212167 33.2041 0.396642 33.8302L3.27433 32.9823ZM3.27279 32.7686L11.2354 6.22647L8.36192 5.36443L0.399315 31.9066L3.27279 32.7686ZM11.2353 6.22692C11.2515 6.17283 11.2796 6.12304 11.3175 6.08117L9.09379 4.06747C8.75655 4.43988 8.50658 4.8828 8.36206 5.36398L11.2353 6.22692ZM11.3175 6.08117C11.3554 6.03931 11.4022 6.00642 11.4544 5.9849L10.3116 3.21111C9.84706 3.40251 9.43103 3.69506 9.09379 4.06747L11.3175 6.08117ZM11.4514 5.98616C13.619 5.09866 15.861 4.40465 18.1509 3.91227L17.5203 0.979299C15.0573 1.50888 12.6461 2.25531 10.3147 3.20985L11.4514 5.98616ZM18.1567 3.91101C18.2481 3.89099 18.3436 3.90545 18.4249 3.95159L19.9051 1.34219C19.1801 0.930928 18.3287 0.80213 17.5145 0.98055L18.1567 3.91101ZM18.4249 3.95159C18.5063 3.99774 18.5677 4.07232 18.5974 4.16102L21.4422 3.20856C21.1776 2.41816 20.6301 1.75345 19.9051 1.34219L18.4249 3.95159ZM18.5968 4.15913L20.4655 9.76529L23.3115 8.81661L21.4428 3.21045L18.5968 4.15913Z" fill="white"/>
</svg>
