<svg width="60" height="60" viewBox="0 0 60 60" fill="none" xmlns="http://www.w3.org/2000/svg">
<path d="M13.125 13.125V26.0382C13.125 35.343 20.5675 43.0555 29.872 43.1245C32.0988 43.1414 34.3069 42.7174 36.369 41.8769C38.4311 41.0365 40.3065 39.7962 41.8871 38.2276C43.4677 36.659 44.7221 34.793 45.5782 32.7373C46.4343 30.6816 46.875 28.4768 46.875 26.25V13.125C46.875 12.6277 46.6775 12.1508 46.3258 11.7992C45.9742 11.4475 45.4973 11.25 45 11.25H15C14.5027 11.25 14.0258 11.4475 13.6742 11.7992C13.3225 12.1508 13.125 12.6277 13.125 13.125Z" stroke="#4554E5" stroke-width="2" stroke-linecap="round" stroke-linejoin="round"/>
<path d="M22.5 52.5H37.5" stroke="#4554E5" stroke-width="2" stroke-linecap="round" stroke-linejoin="round"/>
<path d="M30 43.125V52.5" stroke="#4554E5" stroke-width="2" stroke-linecap="round" stroke-linejoin="round"/>
<path d="M46.4569 30H48.7501C50.7393 30 52.6469 29.2098 54.0534 27.8033C55.4599 26.3968 56.2501 24.4891 56.2501 22.5V18.75C56.2501 18.2527 56.0526 17.7758 55.701 17.4242C55.3493 17.0725 54.8724 16.875 54.3751 16.875H46.8751" stroke="#4554E5" stroke-width="2" stroke-linecap="round" stroke-linejoin="round"/>
<path d="M13.5853 30H11.2202C9.23109 30 7.32344 29.2098 5.91691 27.8033C4.51039 26.3968 3.72021 24.4891 3.72021 22.5V18.75C3.72021 18.2527 3.91776 17.7758 4.26939 17.4242C4.62102 17.0725 5.09793 16.875 5.59521 16.875H13.0952" stroke="#4554E5" stroke-width="2" stroke-linecap="round" stroke-linejoin="round"/>
</svg>
