<svg width="20" height="20" viewBox="0 0 20 20" fill="none" xmlns="http://www.w3.org/2000/svg">
<path d="M7.50001 13.7494H2.34375C2.21943 13.7494 2.1002 13.7 2.01229 13.6121C1.92439 13.5242 1.875 13.405 1.875 13.2806V8.12437C1.875 6.63254 2.46763 5.2018 3.52252 4.14691C4.57741 3.09202 6.00815 2.49939 7.49999 2.49939H7.5C8.99184 2.49939 10.4226 3.09202 11.4775 4.14691C12.5324 5.20181 13.125 6.63255 13.125 8.12439V8.1244C13.125 9.61624 12.5324 11.047 11.4775 12.1019C10.4226 13.1568 8.99185 13.7494 7.50001 13.7494V13.7494Z" stroke="white" stroke-linecap="round" stroke-linejoin="round"/>
<path d="M7.19513 13.7496C7.58329 14.8463 8.30182 15.7958 9.25182 16.4673C10.2018 17.1388 11.3366 17.4994 12.5 17.4994H17.6562C17.7805 17.4994 17.8998 17.45 17.9877 17.3621C18.0756 17.2742 18.125 17.155 18.125 17.0306V11.8744C18.125 10.4357 17.5737 9.05176 16.5847 8.00705C15.5956 6.96234 14.2438 6.33629 12.8073 6.25763" stroke="white" stroke-linecap="round" stroke-linejoin="round"/>
</svg>
