<svg width="60" height="60" viewBox="0 0 60 60" fill="none" xmlns="http://www.w3.org/2000/svg">
<path d="M44.0625 11.25C46.1336 11.25 47.8125 9.57107 47.8125 7.5C47.8125 5.42893 46.1336 3.75 44.0625 3.75C41.9914 3.75 40.3125 5.42893 40.3125 7.5C40.3125 9.57107 41.9914 11.25 44.0625 11.25Z" stroke="white" stroke-width="3" stroke-linecap="round" stroke-linejoin="round"/>
<path d="M37.7405 41.2501C35.3463 42.4822 32.6927 43.125 30.0001 43.125C27.3075 43.125 24.6538 42.4822 22.2596 41.2502" stroke="white" stroke-width="3" stroke-linecap="round" stroke-linejoin="round"/>
<path d="M30 16.875L31.875 5.625L40.3559 6.92977" stroke="white" stroke-width="3" stroke-linecap="round" stroke-linejoin="round"/>
<path d="M13.9238 21.0653C18.2149 18.4566 23.8407 16.875 30.0001 16.875C36.1595 16.875 41.7852 18.4566 46.0763 21.0653L46.076 21.0658C46.5676 20.3902 47.2035 19.8327 47.9375 19.4336C48.6714 19.0345 49.4851 18.8039 50.3193 18.7586C51.1536 18.7133 51.9874 18.8543 52.7603 19.1715C53.5332 19.4887 54.2258 19.974 54.7877 20.5923C55.3496 21.2106 55.7667 21.9463 56.0088 22.7459C56.2508 23.5455 56.3118 24.389 56.1871 25.2151C56.0624 26.0412 55.7553 26.8292 55.2881 27.5218C54.8209 28.2144 54.2052 28.7942 53.4859 29.2192L53.4864 29.219C54.0708 30.6583 54.3725 32.1966 54.3751 33.75C54.3751 43.0698 43.462 50.625 30.0001 50.625C16.5381 50.625 5.62506 43.0698 5.62506 33.75C5.62763 32.1966 5.92935 30.6583 6.51372 29.219L6.51421 29.2192C5.79483 28.7943 5.17914 28.2144 4.71186 27.5218C4.24458 26.8292 3.93744 26.0412 3.81275 25.2151C3.68807 24.3889 3.74896 23.5454 3.99102 22.7457C4.23308 21.9461 4.65023 21.2104 5.21215 20.592C5.77407 19.9737 6.46666 19.4884 7.23961 19.1712C8.01256 18.854 8.84645 18.7129 9.68072 18.7583C10.515 18.8037 11.3287 19.0343 12.0627 19.4334C12.7967 19.8325 13.4326 20.3902 13.9241 21.0657L13.9238 21.0653Z" stroke="white" stroke-width="3" stroke-linecap="round" stroke-linejoin="round"/>
<path d="M20.625 34.6875C22.6961 34.6875 24.375 33.0086 24.375 30.9375C24.375 28.8664 22.6961 27.1875 20.625 27.1875C18.5539 27.1875 16.875 28.8664 16.875 30.9375C16.875 33.0086 18.5539 34.6875 20.625 34.6875Z" fill="white"/>
<path d="M39.375 34.6875C41.4461 34.6875 43.125 33.0086 43.125 30.9375C43.125 28.8664 41.4461 27.1875 39.375 27.1875C37.3039 27.1875 35.625 28.8664 35.625 30.9375C35.625 33.0086 37.3039 34.6875 39.375 34.6875Z" fill="white"/>
</svg>
