<svg width="60" height="60" viewBox="0 0 60 60" fill="none" xmlns="http://www.w3.org/2000/svg">
<path d="M35.625 18.75V47.7465C35.625 48.0552 35.7012 48.3591 35.8469 48.6313C35.9925 48.9034 36.2031 49.1354 36.4599 49.3066L39.0362 51.0241C39.2862 51.1908 39.5726 51.295 39.8713 51.3278C40.17 51.3607 40.4721 51.3213 40.7524 51.2129C41.0327 51.1046 41.2828 50.9304 41.4817 50.7052C41.6806 50.48 41.8224 50.2103 41.8953 49.9188L45 37.5" stroke="#4554E5" stroke-width="2" stroke-linecap="round" stroke-linejoin="round"/>
<path d="M45 37.5001C47.4864 37.5001 49.871 36.5124 51.6291 34.7543C53.3873 32.9961 54.375 30.6115 54.375 28.1251C54.375 25.6387 53.3873 23.2542 51.6291 21.496C49.871 19.7379 47.4864 18.7501 45 18.7501H35.625C35.625 18.7501 22.8629 18.7501 10.5818 8.44992C10.3086 8.22003 9.97555 8.07291 9.62166 8.02587C9.26777 7.97883 8.90781 8.03381 8.5841 8.18436C8.26039 8.33491 7.98641 8.57476 7.79436 8.8757C7.60231 9.17665 7.50019 9.52617 7.5 9.88318V46.3671C7.50019 46.7241 7.60231 47.0736 7.79436 47.3746C7.98641 47.6755 8.26039 47.9154 8.5841 48.0659C8.90781 48.2165 9.26777 48.2715 9.62166 48.2244C9.97555 48.1774 10.3086 48.0303 10.5818 47.8004C22.8629 37.5001 35.625 37.5001 35.625 37.5001H45Z" stroke="#4554E5" stroke-width="2" stroke-linecap="round" stroke-linejoin="round"/>
</svg>
