<svg width="20" height="20" viewBox="0 0 20 20" fill="none" xmlns="http://www.w3.org/2000/svg">
<path d="M6.87502 10.5369L13.8998 16.7187C13.9811 16.7902 14.0795 16.8394 14.1856 16.8614C14.2916 16.8834 14.4015 16.8776 14.5045 16.8443C14.6076 16.8111 14.7002 16.7517 14.7734 16.6719C14.8465 16.5921 14.8977 16.4946 14.9219 16.3891L17.8605 3.56624C17.8859 3.45538 17.8806 3.33968 17.8451 3.23162C17.8096 3.12356 17.7453 3.02723 17.6591 2.95301C17.5729 2.8788 17.4681 2.82951 17.3559 2.81046C17.2438 2.79141 17.1286 2.80333 17.0227 2.84492L2.60423 8.50933C2.47857 8.55869 2.37227 8.64742 2.30125 8.76224C2.23022 8.87706 2.19828 9.01179 2.21021 9.14627C2.22214 9.28075 2.27729 9.40775 2.36742 9.50828C2.45755 9.6088 2.5778 9.67743 2.71019 9.70391L6.87502 10.5369Z" stroke="white" stroke-linecap="round" stroke-linejoin="round"/>
<path d="M6.875 10.5369L17.5088 2.85693" stroke="white" stroke-linecap="round" stroke-linejoin="round"/>
<path d="M10.3834 13.6242L7.94194 16.0656C7.85453 16.1531 7.74317 16.2126 7.62193 16.2367C7.50069 16.2608 7.37503 16.2484 7.26082 16.2011C7.14662 16.1538 7.04901 16.0737 6.98033 15.9709C6.91166 15.8682 6.875 15.7473 6.875 15.6237V10.5369" stroke="white" stroke-linecap="round" stroke-linejoin="round"/>
</svg>
