<svg width="60" height="60" viewBox="0 0 60 60" fill="none" xmlns="http://www.w3.org/2000/svg">
<path d="M20.6249 31.6107L41.6993 50.1561C41.9431 50.3707 42.2385 50.5183 42.5565 50.5844C42.8745 50.6504 43.2043 50.6328 43.5134 50.5331C43.8225 50.4334 44.1005 50.2551 44.32 50.0157C44.5395 49.7763 44.693 49.484 44.7656 49.1674L53.5813 10.6988C53.6575 10.3662 53.6415 10.0191 53.5351 9.69495C53.4286 9.37076 53.2357 9.08178 52.9771 8.85913C52.7185 8.63649 52.4041 8.48863 52.0677 8.43148C51.7313 8.37434 51.3857 8.41007 51.0681 8.53484L7.81257 25.5281C7.43559 25.6762 7.1167 25.9424 6.90362 26.2868C6.69053 26.6313 6.59472 27.0354 6.6305 27.4389C6.66629 27.8423 6.83175 28.2234 7.10214 28.5249C7.37252 28.8265 7.73329 29.0324 8.13045 29.1118L20.6249 31.6107Z" stroke="white" stroke-width="3" stroke-linecap="round" stroke-linejoin="round"/>
<path d="M20.625 31.6107L52.5263 8.57088" stroke="white" stroke-width="3" stroke-linecap="round" stroke-linejoin="round"/>
<path d="M31.1501 40.8728L23.8258 48.1971C23.5636 48.4593 23.2295 48.6379 22.8658 48.7102C22.5021 48.7826 22.1251 48.7454 21.7825 48.6035C21.4399 48.4616 21.147 48.2213 20.941 47.9129C20.735 47.6046 20.625 47.2421 20.625 46.8713V31.6107" stroke="white" stroke-width="3" stroke-linecap="round" stroke-linejoin="round"/>
</svg>
