<svg width="49" height="44" viewBox="0 0 49 44" fill="none" xmlns="http://www.w3.org/2000/svg">
<path d="M2.2498 37.875C2.2498 37.875 11.6248 36 13.4998 30.375C13.4998 30.375 -1.5002 24.75 2.2498 4.12501C2.2498 4.12501 9.7498 13.5 20.9998 15.375V11.6257C21 9.47168 21.7418 7.38343 23.1005 5.71201C24.4592 4.04059 26.352 2.88793 28.4605 2.44782C30.5691 2.00771 32.7649 2.30699 34.6787 3.29534C36.5926 4.28369 38.1078 5.90085 38.9697 7.87492L47.2498 7.87501L39.7498 15.375C39.7498 28.5 30.3748 41.625 13.4998 41.625C5.9998 41.625 2.2498 37.875 2.2498 37.875Z" stroke="white" stroke-width="3" stroke-linecap="round" stroke-linejoin="round"/>
</svg>
