<svg width="60" height="60" viewBox="0 0 60 60" fill="none" xmlns="http://www.w3.org/2000/svg">
<path d="M27.1875 37.5C29.7763 37.5 31.875 35.4013 31.875 32.8125C31.875 30.2237 29.7763 28.125 27.1875 28.125C24.5987 28.125 22.5 30.2237 22.5 32.8125C22.5 35.4013 24.5987 37.5 27.1875 37.5Z" stroke="#4554E5" stroke-width="2" stroke-linecap="round" stroke-linejoin="round"/>
<path d="M7.50134 52.5009L23.8729 36.1272" stroke="#4554E5" stroke-width="2" stroke-linecap="round" stroke-linejoin="round"/>
<path d="M7.50134 52.5007L40.1839 47.0536C40.5085 46.9995 40.8131 46.861 41.0672 46.6519C41.3212 46.4428 41.5158 46.1706 41.6313 45.8625L46.8763 31.8757L28.1263 13.1257L14.1396 18.3708C13.8315 18.4863 13.5592 18.6809 13.3502 18.9349C13.1411 19.189 13.0025 19.4936 12.9484 19.8181L7.50134 52.5007Z" stroke="#4554E5" stroke-width="2" stroke-linecap="round" stroke-linejoin="round"/>
<path d="M46.8763 31.8758L53.0505 25.7016C53.2246 25.5275 53.3627 25.3208 53.457 25.0933C53.5512 24.8659 53.5997 24.622 53.5997 24.3758C53.5997 24.1296 53.5512 23.8858 53.457 23.6583C53.3627 23.4308 53.2246 23.2241 53.0505 23.05L36.9522 6.95164C36.6005 6.60001 36.1236 6.40247 35.6263 6.40247C35.1291 6.40247 34.6521 6.60001 34.3005 6.95164L28.1263 13.1258" stroke="#4554E5" stroke-width="2" stroke-linecap="round" stroke-linejoin="round"/>
</svg>
