<svg width="52" height="42" viewBox="0 0 52 42" fill="none" xmlns="http://www.w3.org/2000/svg">
<path d="M33.5 21L22.25 13.5V28.5L33.5 21Z" stroke="white" stroke-width="3" stroke-linecap="round" stroke-linejoin="round"/>
<path d="M1.625 21C1.625 27.9739 2.3455 32.0657 2.89322 34.1687C3.03963 34.7431 3.32079 35.2743 3.71341 35.7183C4.10603 36.1624 4.59881 36.5065 5.15091 36.7221C12.9971 39.7373 26 39.6545 26 39.6545C26 39.6545 39.0028 39.7373 46.849 36.7221C47.4011 36.5065 47.8939 36.1624 48.2865 35.7184C48.6791 35.2743 48.9603 34.7431 49.1067 34.1688C49.6545 32.0658 50.375 27.9739 50.375 21C50.375 14.026 49.6545 9.93425 49.1068 7.83125C48.9604 7.25689 48.6792 6.72569 48.2866 6.28165C47.894 5.83762 47.4012 5.49352 46.8491 5.27788C39.0029 2.26271 26 2.3455 26 2.3455C26 2.3455 12.9972 2.26271 5.15098 5.27785C4.59888 5.49349 4.1061 5.83758 3.71348 6.28162C3.32085 6.72565 3.03969 7.25685 2.89327 7.83121C2.34553 9.93421 1.625 14.026 1.625 21Z" stroke="white" stroke-width="3" stroke-linecap="round" stroke-linejoin="round"/>
</svg>
