<svg width="60" height="60" viewBox="0 0 60 60" fill="none" xmlns="http://www.w3.org/2000/svg">
<circle cx="30" cy="30" r="30" fill="white"/>
<g clip-path="url(#clip0_1:244)">
<path fill-rule="evenodd" clip-rule="evenodd" d="M20.8338 19.4358C21.0674 19.1604 21.421 19 21.7949 19H38.2051C38.5791 19 38.9327 19.1604 39.1661 19.4358L45.7303 27.1778C46.122 27.6398 46.0829 28.306 45.6395 28.7244L30.8703 42.6599C30.3896 43.1133 29.6104 43.1133 29.1297 42.6599L14.3605 28.7244C13.917 28.306 13.8779 27.6398 14.2697 27.1778L20.8338 19.4358ZM21.3778 22.5122L22.9788 26.7419H17.7915L21.3778 22.5122ZM18.2021 29.0645L27.0001 37.3659L23.8579 29.0645H18.2021ZM26.4717 29.0645L30 38.386L33.5283 29.0645H26.4717ZM36.1421 29.0645L33 37.3657L41.7979 29.0645H36.1421ZM42.2084 26.7419H37.0212L38.6221 22.5122L42.2084 26.7419ZM36.4587 21.3226H32.2544L34.9571 25.2895L36.4587 21.3226ZM33.0204 26.7419L30 22.3088L26.9796 26.7419H33.0204ZM25.0429 25.2895L27.7456 21.3226H23.5413L25.0429 25.2895Z" fill="#7B9D6A"/>
</g>
<defs>
<clipPath id="clip0_1:244">
<rect width="32" height="24" fill="white" transform="translate(14 19)"/>
</clipPath>
</defs>
</svg>
