<svg width="60" height="60" viewBox="0 0 60 60" fill="none" xmlns="http://www.w3.org/2000/svg">
<circle cx="30" cy="30" r="30" fill="#4517C3"/>
<path d="M17.7508 33.656C16.6521 32.536 16.1028 31.1173 16.1028 29.4C16.1028 27.6827 16.6521 26.2693 17.7508 25.16C18.8601 24.04 20.2575 23.48 21.9428 23.48C23.8308 23.48 25.3188 24.1627 26.4068 25.528C26.8868 26.1147 27.2388 26.792 27.4628 27.56H26.0228C25.7988 27.0267 25.5161 26.5733 25.1748 26.2C24.3321 25.2933 23.2548 24.84 21.9428 24.84C20.6521 24.84 19.5961 25.2613 18.7748 26.104C17.9535 26.9467 17.5428 28.0453 17.5428 29.4C17.5428 30.7547 17.9535 31.8533 18.7748 32.696C19.5961 33.5387 20.6521 33.96 21.9428 33.96C23.2761 33.96 24.3801 33.4693 25.2548 32.488C25.6068 32.0827 25.8895 31.5867 26.1028 31H27.5428C27.2868 31.832 26.9135 32.552 26.4228 33.16C25.3028 34.6 23.8095 35.32 21.9428 35.32C20.2575 35.32 18.8601 34.7653 17.7508 33.656ZM28.6597 23.8H30.1797L32.2597 33.64H32.6597L34.7397 23.8H37.0597L39.1397 33.64H39.5397L41.6197 23.8H43.1397L40.6597 35H38.0997L36.0997 25.16H35.6997L33.6997 35H31.1397L28.6597 23.8Z" fill="white"/>
</svg>
