<svg width="60" height="60" viewBox="0 0 60 60" fill="none" xmlns="http://www.w3.org/2000/svg">
<circle cx="30" cy="30" r="30" fill="#373F57"/>
<g clip-path="url(#clip0_1:208)">
<path d="M30.1251 34.6867C32.7565 34.6867 34.8897 32.5954 34.8897 30.0156C34.8897 27.4358 32.7565 25.3444 30.1251 25.3444C27.4937 25.3444 25.3605 27.4358 25.3605 30.0156C25.3605 32.5954 27.4937 34.6867 30.1251 34.6867Z" fill="#FAA05A"/>
<path d="M27.0544 23.1056C27.1298 21.8975 26.2326 20.8583 25.0505 20.7846C23.8684 20.7108 22.849 21.6304 22.7737 22.8385C22.6983 24.0466 23.5955 25.0858 24.7776 25.1595C25.9597 25.2333 26.979 24.3137 27.0544 23.1056Z" fill="#FAA05A"/>
<path d="M20.7642 23.4878C20.8319 22.4039 20.0273 21.4716 18.9671 21.4054C17.9069 21.3393 16.9927 22.1643 16.9251 23.2482C16.8574 24.3321 17.662 25.2644 18.7222 25.3306C19.7824 25.3967 20.6966 24.5717 20.7642 23.4878Z" fill="#FAA05A"/>
<path d="M17.3412 27.7696C17.3958 26.8955 16.7477 26.1437 15.8937 26.0905C15.0397 26.0372 14.3032 26.7026 14.2487 27.5767C14.1941 28.4508 14.8422 29.2026 15.6962 29.2558C16.5502 29.3091 17.2867 28.6437 17.3412 27.7696Z" fill="#FAA05A"/>
<path d="M16.5892 32.7007C16.6348 31.9688 16.0928 31.3393 15.3786 31.2947C14.6643 31.2501 14.0483 31.8074 14.0026 32.5394C13.9569 33.2713 14.4989 33.9008 15.2132 33.9454C15.9275 33.9899 16.5435 33.4327 16.5892 32.7007Z" fill="#FAA05A"/>
<path d="M17.654 37.2626C17.6905 36.6774 17.2585 36.1743 16.6891 36.1388C16.1197 36.1032 15.6285 36.5488 15.592 37.1339C15.5555 37.719 15.9875 38.2222 16.5569 38.2577C17.1263 38.2932 17.6175 37.8477 17.654 37.2626Z" fill="#FAA05A"/>
<path d="M23.5863 33.7795C22.3784 33.8588 21.4621 34.8811 21.5397 36.063C21.6172 37.2448 22.6593 38.1387 23.8672 38.0594C25.075 37.9801 25.9913 36.9578 25.9138 35.7759C25.8362 34.594 24.7941 33.7002 23.5863 33.7795Z" fill="#FAA05A"/>
<path d="M24.7673 39.9697C23.6836 40.0408 22.8615 40.9577 22.9311 42.0176C23.0007 43.0776 23.9355 43.8792 25.0192 43.808C26.1029 43.7369 26.925 42.82 26.8554 41.7601C26.7859 40.7001 25.851 39.8985 24.7673 39.9697Z" fill="#FAA05A"/>
<path d="M29.4507 42.8187C28.5768 42.8761 27.9138 43.6147 27.9698 44.4685C28.0259 45.3223 28.7798 45.968 29.6537 45.9106C30.5276 45.8533 31.1906 45.1146 31.1346 44.2608C31.0785 43.407 30.3247 42.7613 29.4507 42.8187Z" fill="#FAA05A"/>
<path d="M34.4373 42.936C33.7055 42.984 33.1503 43.6019 33.1971 44.316C33.244 45.0301 33.8753 45.5701 34.6071 45.522C35.3389 45.474 35.8941 44.8562 35.8473 44.142C35.8004 43.4279 35.1692 42.888 34.4373 42.936Z" fill="#FAA05A"/>
<path d="M38.8263 41.2982C38.2413 41.3366 37.7973 41.8292 37.8347 42.3985C37.872 42.9678 38.3766 43.3982 38.9616 43.3598C39.5466 43.3214 39.9905 42.8288 39.9532 42.2595C39.9158 41.6902 39.4113 41.2598 38.8263 41.2982Z" fill="#FAA05A"/>
<path d="M33.0514 36.7973C32.9894 38.0062 33.898 39.0354 35.0809 39.0961C36.2637 39.1567 37.2729 38.2259 37.3349 37.0171C37.3969 35.8082 36.4883 34.779 35.3054 34.7183C34.1226 34.6577 33.1134 35.5885 33.0514 36.7973Z" fill="#FAA05A"/>
<path d="M39.337 36.3456C39.2814 37.4302 40.0962 38.3535 41.1571 38.4079C42.2179 38.4623 43.123 37.6272 43.1786 36.5426C43.2342 35.458 42.4194 34.5347 41.3585 34.4803C40.2977 34.4259 39.3926 35.261 39.337 36.3456Z" fill="#FAA05A"/>
<path d="M42.7124 32.0262C42.6676 32.9008 43.3239 33.6454 44.1785 33.6892C45.033 33.733 45.7621 33.0595 45.8069 32.1849C45.8518 31.3102 45.1954 30.5657 44.3409 30.5218C43.4864 30.478 42.7573 31.1515 42.7124 32.0262Z" fill="#FAA05A"/>
<path d="M43.4099 27.0871C43.3723 27.8195 43.9213 28.443 44.636 28.4796C45.3507 28.5163 45.9605 27.9523 45.9981 27.2198C46.0357 26.4874 45.4867 25.864 44.772 25.8273C44.0573 25.7906 43.4474 26.3547 43.4099 27.0871Z" fill="#FAA05A"/>
<path d="M42.2948 22.5373C42.2647 23.1228 42.7023 23.6211 43.272 23.6504C43.8418 23.6796 44.3281 23.2286 44.3581 22.6431C44.3881 22.0576 43.9506 21.5593 43.3808 21.5301C42.811 21.5009 42.3248 21.9518 42.2948 22.5373Z" fill="#FAA05A"/>
<path d="M36.6857 26.5973C37.8961 26.5994 38.879 25.6409 38.8811 24.4565C38.8831 23.2721 37.9035 22.3103 36.693 22.3082C35.4826 22.3061 34.4996 23.2646 34.4976 24.449C34.4956 25.6334 35.4752 26.5952 36.6857 26.5973Z" fill="#FAA05A"/>
<path d="M35.9232 20.3418C37.0092 20.3436 37.891 19.4841 37.8929 18.4218C37.8947 17.3596 37.0158 16.497 35.9298 16.4951C34.8438 16.4933 33.9619 17.3529 33.9601 18.4151C33.9582 19.4773 34.8371 20.3399 35.9232 20.3418Z" fill="#FAA05A"/>
<path d="M31.442 17.1844C32.3178 17.1859 33.029 16.4935 33.0304 15.6378C33.0319 14.7822 32.3231 14.0873 31.4473 14.0858C30.5715 14.0843 29.8604 14.7767 29.8589 15.6324C29.8574 16.488 30.5662 17.1829 31.442 17.1844Z" fill="#FAA05A"/>
<path d="M26.4743 16.7323C27.2077 16.7335 27.8032 16.1544 27.8045 15.4387C27.8057 14.7231 27.2122 14.1419 26.4788 14.1406C25.7454 14.1394 25.1499 14.7185 25.1486 15.4342C25.1474 16.1498 25.7409 16.731 26.4743 16.7323Z" fill="#FAA05A"/>
<path d="M21.9854 18.0714C22.5717 18.0724 23.0478 17.6107 23.0487 17.0402C23.0497 16.4697 22.5753 16.0064 21.989 16.0054C21.4027 16.0044 20.9267 16.466 20.9257 17.0366C20.9247 17.6071 21.3992 18.0704 21.9854 18.0714Z" fill="#FAA05A"/>
</g>
<defs>
<clipPath id="clip0_1:208">
<rect width="32" height="32" fill="white" transform="translate(14 14)"/>
</clipPath>
</defs>
</svg>
