<svg width="60" height="60" viewBox="0 0 60 60" fill="none" xmlns="http://www.w3.org/2000/svg">
<circle cx="30" cy="30" r="30" fill="white"/>
<path fill-rule="evenodd" clip-rule="evenodd" d="M10.5649 28.7301C11.4903 28.7301 12.1072 27.9181 12.1072 27.0032C12.1072 26.0884 11.4903 25.2765 10.5649 25.2765C9.63947 25.2765 9.03402 25.974 9.03402 27.0032C9.03402 28.0325 9.63947 28.7301 10.5649 28.7301ZM10.3479 24.3845C11.1133 24.3845 11.7988 24.7732 12.1415 25.368V24.9791C12.1415 24.6818 12.3358 24.4302 12.6671 24.4302C12.9984 24.4302 13.1811 24.6703 13.1811 24.9677V31.1773C13.1811 31.4748 12.964 31.7149 12.6443 31.7149C12.3243 31.7149 12.1072 31.4748 12.1072 31.1773V28.6386C11.7416 29.2219 11.1133 29.6221 10.3479 29.6221C9.03402 29.6221 7.96007 28.5815 7.96007 27.0032C7.96007 25.4822 9.03402 24.3845 10.3479 24.3845Z" fill="#6B7988"/>
<path fill-rule="evenodd" clip-rule="evenodd" d="M14.5966 27.232V24.9676C14.5966 24.6703 14.8365 24.4302 15.1335 24.4302C15.4306 24.4302 15.6706 24.6703 15.6706 24.9676V27.3577C15.6706 28.0782 16.2303 28.6386 16.9843 28.6386C17.7384 28.6386 18.3096 28.0782 18.3096 27.3577V24.9676C18.3096 24.6703 18.5495 24.4302 18.8466 24.4302C19.1437 24.4302 19.3836 24.6703 19.3836 24.9676V27.232C19.3836 28.57 18.3668 29.6221 16.9843 29.6221C15.602 29.6221 14.5966 28.57 14.5966 27.232Z" fill="#6B7988"/>
<path fill-rule="evenodd" clip-rule="evenodd" d="M21.3026 29.5763C20.9828 29.5763 20.7658 29.3362 20.7658 29.0389V24.9677C20.7658 24.6703 20.9942 24.4302 21.3026 24.4302C21.6111 24.4302 21.8396 24.6703 21.8396 24.9677V29.0389C21.8396 29.3362 21.6225 29.5763 21.3026 29.5763Z" fill="#6B7988"/>
<path fill-rule="evenodd" clip-rule="evenodd" d="M27.4363 25.105C27.5277 25.2078 27.5963 25.3108 27.5963 25.4823C27.5963 25.711 27.4134 25.9169 27.105 25.9169C26.9107 25.9169 26.7851 25.7567 26.648 25.6424C26.3853 25.4138 26.0538 25.288 25.6769 25.288C24.6144 25.288 24.066 26.0884 24.066 27.0032C24.066 27.9181 24.6144 28.7187 25.6769 28.7187C26.0538 28.7187 26.3853 28.5929 26.648 28.3642C26.7851 28.2497 26.9107 28.0898 27.105 28.0898C27.4134 28.0898 27.5963 28.2955 27.5963 28.5244C27.5963 28.6958 27.5277 28.7987 27.4363 28.9017C27.0935 29.3134 26.3853 29.6222 25.6654 29.6222C23.986 29.6222 22.9921 28.467 22.9921 27.0032C22.9921 25.5394 23.986 24.3845 25.6654 24.3845C26.3853 24.3845 27.0935 24.6933 27.4363 25.105Z" fill="#6B7988"/>
<path fill-rule="evenodd" clip-rule="evenodd" d="M29.3241 29.5764C29.0043 29.5764 28.7873 29.3363 28.7873 29.039V22.3146C28.7873 22.0172 29.0043 21.7771 29.3241 21.7771C29.644 21.7771 29.8611 22.0172 29.8611 22.3146V26.42L32.2603 24.5446C32.3517 24.4646 32.4887 24.4303 32.5916 24.4303C32.8773 24.4303 33.0828 24.6361 33.0828 24.8991C33.0828 25.0707 32.98 25.1965 32.8315 25.3108L31.2892 26.5116L33.0486 28.7759C33.1172 28.8673 33.1627 28.9588 33.1627 29.0846C33.1627 29.3476 32.98 29.5764 32.6487 29.5764C32.4887 29.5764 32.3744 29.4964 32.2831 29.3705L30.5237 27.1063L29.8611 27.6437V29.039C29.8611 29.3363 29.644 29.5764 29.3241 29.5764Z" fill="#6B7988"/>
<path fill-rule="evenodd" clip-rule="evenodd" d="M36.3908 25.2993C35.4768 25.2993 34.837 26.0655 34.837 27.0032C34.837 27.9867 35.374 28.7073 36.3908 28.7073C37.3391 28.7073 37.9445 27.8952 37.9445 27.0032C37.9445 25.9512 37.3047 25.2993 36.3908 25.2993ZM39.0185 29.0389C39.0185 29.3363 38.8128 29.5764 38.4815 29.5764C38.1616 29.5764 37.9559 29.3363 37.9559 29.0389V28.7873C37.6361 29.2676 37.0306 29.6221 36.288 29.6221C34.6885 29.6221 33.7632 28.4557 33.7632 27.0032C33.7632 25.5737 34.7914 24.3845 36.4022 24.3845C38.0473 24.3845 39.0185 25.4595 39.0185 27.0032V29.0389Z" fill="#6B7988"/>
<path fill-rule="evenodd" clip-rule="evenodd" d="M43.0193 25.2765C42.0938 25.2765 41.4771 26.0884 41.4771 27.0032C41.4771 27.9181 42.0938 28.7301 43.0193 28.7301C43.9448 28.7301 44.5502 28.0325 44.5502 27.0032C44.5502 25.974 43.9448 25.2765 43.0193 25.2765ZM43.2364 29.6221C42.4709 29.6221 41.8426 29.2219 41.4771 28.6386V31.1773C41.4771 31.4748 41.2599 31.7149 40.94 31.7149C40.6202 31.7149 40.4031 31.4748 40.4031 31.1773V24.9677C40.4031 24.6704 40.5858 24.4303 40.9172 24.4303C41.2485 24.4303 41.4427 24.6818 41.4427 24.9792V25.368C41.7855 24.7732 42.4709 24.3845 43.2364 24.3845C44.5502 24.3845 45.6242 25.4823 45.6242 27.0032C45.6242 28.5815 44.5502 29.6221 43.2364 29.6221Z" fill="#6B7988"/>
<path fill-rule="evenodd" clip-rule="evenodd" d="M49.4353 25.2765C48.5098 25.2765 47.893 26.0884 47.893 27.0032C47.893 27.9181 48.5098 28.7301 49.4353 28.7301C50.3607 28.7301 50.9662 28.0325 50.9662 27.0032C50.9662 25.974 50.3607 25.2765 49.4353 25.2765ZM49.6523 29.6221C48.8869 29.6221 48.2586 29.2219 47.893 28.6386V31.1773C47.893 31.4748 47.6759 31.7149 47.356 31.7149C47.0362 31.7149 46.8191 31.4748 46.8191 31.1773V24.9677C46.8191 24.6704 47.0018 24.4303 47.3331 24.4303C47.6644 24.4303 47.8587 24.6818 47.8587 24.9792V25.368C48.2014 24.7732 48.8869 24.3845 49.6523 24.3845C50.9662 24.3845 52.0401 25.4823 52.0401 27.0032C52.0401 28.5815 50.9662 29.6221 49.6523 29.6221Z" fill="#6B7988"/>
<path fill-rule="evenodd" clip-rule="evenodd" d="M16.9843 30.6568C18.3668 30.6568 19.3836 31.709 19.3836 33.047V35.3112C19.3836 35.6086 19.1435 35.8487 18.8466 35.8487C18.5495 35.8487 18.3096 35.6086 18.3096 35.3112V32.9212C18.3096 32.2007 17.7384 31.6403 16.9843 31.6403C16.2303 31.6403 15.6705 32.2007 15.6705 32.9212V35.3112C15.6705 35.6086 15.4306 35.8487 15.1336 35.8487C14.8365 35.8487 14.5966 35.6086 14.5966 35.3112V33.047C14.5966 31.709 15.602 30.6568 16.9843 30.6568Z" fill="#47C9AF"/>
<path fill-rule="evenodd" clip-rule="evenodd" d="M21.3026 35.8487C20.9828 35.8487 20.7658 35.6086 20.7658 35.3113V31.2401C20.7658 30.9427 20.9942 30.7026 21.3026 30.7026C21.6111 30.7026 21.8396 30.9427 21.8396 31.2401V35.3113C21.8396 35.6086 21.6225 35.8487 21.3026 35.8487Z" fill="#47C9AF"/>
<path fill-rule="evenodd" clip-rule="evenodd" d="M25.3798 30.6568C26.7622 30.6568 27.779 31.709 27.779 33.047V35.3112C27.779 35.6086 27.5391 35.8487 27.242 35.8487C26.945 35.8487 26.705 35.6086 26.705 35.3112V32.9212C26.705 32.2007 26.1338 31.6403 25.3798 31.6403C24.6257 31.6403 24.066 32.2007 24.066 32.9212V35.3112C24.066 35.6086 23.826 35.8487 23.5291 35.8487C23.232 35.8487 22.9921 35.6086 22.9921 35.3112V33.047C22.9921 31.709 23.9975 30.6568 25.3798 30.6568Z" fill="#47C9AF"/>
<path fill-rule="evenodd" clip-rule="evenodd" d="M28.1572 38H28.0315C27.7801 38 27.586 37.8055 27.586 37.5539C27.586 37.2909 27.7801 37.108 28.0315 37.108H28.0544C28.717 37.108 28.8884 36.8106 28.8884 36.2045V31.2527C28.8884 30.9555 29.1168 30.7153 29.4253 30.7153C29.7338 30.7153 29.9623 30.9555 29.9623 31.2527V36.1359C29.9623 37.3367 29.4939 38 28.1572 38Z" fill="#47C9AF"/>
<path fill-rule="evenodd" clip-rule="evenodd" d="M33.7636 31.5716C32.8496 31.5716 32.2098 32.3379 32.2098 33.2756C32.2098 34.2591 32.7468 34.9795 33.7636 34.9795C34.7119 34.9795 35.3173 34.1676 35.3173 33.2756C35.3173 32.2235 34.6775 31.5716 33.7636 31.5716ZM36.3913 35.3112C36.3913 35.6086 36.1856 35.8487 35.8543 35.8487C35.5344 35.8487 35.3287 35.6086 35.3287 35.3112V35.0597C35.0089 35.54 34.4034 35.8944 33.6609 35.8944C32.0613 35.8944 31.136 34.728 31.136 33.2756C31.136 31.8461 32.1642 30.6568 33.775 30.6568C35.4202 30.6568 36.3913 31.7318 36.3913 33.2756V35.3112Z" fill="#47C9AF"/>
</svg>
