<svg width="60" height="60" viewBox="0 0 60 60" fill="none" xmlns="http://www.w3.org/2000/svg">
<circle cx="30" cy="30" r="30" fill="#283137"/>
<path d="M36.9552 37.0182L31.5055 39.3604V39.1262C30.4547 39.3922 29.2907 39.5454 28.1882 39.5947C23.0631 39.5454 18.9951 36.8938 18.9478 33.7385V32.5672C20.6311 34.9869 24.0578 36.6083 28.1882 36.5497C29.5855 36.6083 31.015 36.3896 32.2161 36.0812L32.6901 34.9098C31.2654 35.3301 29.7105 35.6224 28.1882 35.6126C23.0631 35.6224 18.9951 32.9708 18.9478 29.7569V28.8198C20.6311 31.0566 24.0505 32.6784 28.1882 32.5676C30.0497 32.6784 31.8701 32.2914 33.4007 31.6306L33.6379 30.4592C32.1425 31.2391 30.2044 31.6921 28.1882 31.6306C23.0631 31.6921 18.9951 29.0404 18.9478 25.7749V24.8378C20.6311 27.1268 24.0578 28.7481 28.1882 28.8198C30.5358 28.7481 32.7613 28.1346 34.5857 27.18L34.8229 25.7744C33.1669 26.9877 30.7495 27.7695 28.1882 27.8828C23.0631 27.7695 18.9956 25.1174 18.9478 21.7928C18.9951 18.6307 23.0631 15.979 28.1882 15.9371C31.2434 15.979 34.081 17.0381 35.7707 18.7478L35.9352 19.0187L37.1299 19.0235L36.9552 18.7478C35.2748 16.49 31.914 15 28.1882 15C22.5175 15 18 18.0899 18 21.7928V33.9728C18.1991 37.5873 22.6136 40.5313 28.1882 40.5313C31.8701 40.5313 35.1791 39.0998 36.9552 37.0182Z" fill="white"/>
<path d="M34.4568 45.3255L36.37 37.2877L30.8701 39.6518L34.2182 25.7041H27.7612L29.4352 18.8483H50L48.326 25.7041H41.6308L40.1959 29.4865L47.6085 26.4132L34.4568 45.3255ZM37.8049 35.6327L36.8483 40.361L44.7392 28.5412L38.2827 31.3783L41.1525 24.7587H47.6085L48.8043 19.7942H30.1526L28.9569 24.7587H35.4134L32.3045 37.9973L37.8049 35.6336V35.6327Z" fill="#FABF2C"/>
</svg>
