<svg width="60" height="60" viewBox="0 0 60 60" fill="none" xmlns="http://www.w3.org/2000/svg">
<circle cx="30" cy="30" r="30" fill="white"/>
<path d="M41.3111 39.7857C41.9815 39.2897 42.3655 38.7153 42.4951 37.7922C42.6727 36.5138 42.1335 35.989 38.4648 27.1764C37.588 25.0708 36.9736 24.4372 34.5385 24.386C31.5993 24.3252 28.649 24.362 25.7066 24.354C24.9594 24.354 24.0891 24.322 23.3499 24.354C19.8875 24.6772 19.7195 28.9971 22.5499 30.0099C23.2059 30.2275 24.1563 30.1859 24.8538 30.1843C25.4138 30.1843 26.5354 30.1747 29.6746 30.1843C29.7258 30.1859 29.7098 30.1795 29.5498 30.5203C28.1946 33.5922 24.6234 35.7202 20.9579 35.133C17.5836 34.5906 15.2508 32.4259 14.3004 29.2611C14.0661 28.4225 13.9678 27.5517 14.0092 26.682C14.2076 23.2308 16.3388 20.3269 18.7292 18.1141C22.0283 15.0614 26.6634 13.6406 31.1033 14.0774C32.7525 14.2219 34.3649 14.6466 35.8712 15.3334C38.0536 16.303 39.7112 17.4085 41.3079 19.2501C44.5447 22.9828 45.1863 26.3332 45.4359 29.2723C45.4359 29.9955 45.4263 30.5827 45.4279 31.2787V31.4003L45.4551 45.9872C32.6841 46.0176 45.3687 45.9696 32.5977 46C31.9225 46 31.1673 45.992 30.3065 45.984L30.1881 45.9808C29.3146 45.9712 28.641 45.9936 27.7786 45.912C24.1883 45.568 20.8011 43.9072 18.2236 41.4001C17.8668 41.0513 17.694 40.8513 17.4748 40.6257C17.4126 40.5522 17.3518 40.4775 17.2924 40.4017C17.2892 40.4017 17.2892 40.4017 17.2924 40.4017C17.3052 40.4097 17.3564 40.4385 17.5068 40.4929L17.686 40.5553C17.7676 40.5841 17.798 40.5969 17.8476 40.6161C17.926 40.6449 18.0556 40.6961 18.5612 40.8561C21.1455 41.6639 23.9137 41.6714 26.5024 40.8776C29.0911 40.0838 31.3792 38.5258 33.0665 36.4082C33.9145 35.3522 34.1705 34.8642 34.7561 33.7538C35.58 35.357 36.2376 37.0258 37.028 38.6961C37.8024 40.3297 39.9368 40.8113 41.3143 39.7857H41.3111Z" fill="#39ADE8"/>
</svg>
