<svg width="60" height="60" viewBox="0 0 60 60" fill="none" xmlns="http://www.w3.org/2000/svg">
<circle cx="30" cy="30" r="30" fill="#212936"/>
<path d="M12.7632 22.395V20.1H28.1532V22.395H21.6732V39H19.2432V22.395H12.7632Z" fill="white"/>
<path d="M30.5789 39V20.1H38.5439C40.6679 20.1 42.3689 20.685 43.6469 21.855C44.9249 23.025 45.5639 24.51 45.5639 26.31C45.5639 28.11 44.9249 29.595 43.6469 30.765C42.3689 31.935 40.6679 32.52 38.5439 32.52H33.0089V39H30.5789ZM33.0089 30.225H38.5439C40.0019 30.225 41.1269 29.874 41.9189 29.172C42.7289 28.452 43.1339 27.498 43.1339 26.31C43.1339 25.122 42.7289 24.177 41.9189 23.475C41.1269 22.755 40.0019 22.395 38.5439 22.395H33.0089V30.225Z" fill="white"/>
</svg>
