<svg width="60" height="60" viewBox="0 0 60 60" fill="none" xmlns="http://www.w3.org/2000/svg">
<circle cx="30" cy="30" r="30" fill="white"/>
<g clip-path="url(#clip0_1:248)">
<path d="M36.8011 45.8282C36.7486 45.8282 36.6978 45.8265 36.647 45.8248C36.3335 45.811 36.0252 45.7509 35.7292 45.6478C35.6801 45.6307 35.6329 45.6135 35.5856 45.5946C34.6047 45.1977 33.792 44.2649 33.4295 43.1345C32.4364 43.5124 31.2173 43.7117 29.8932 43.7117C28.8861 43.7117 27.8877 43.5949 26.9979 43.3733C26.6021 44.4023 25.8367 45.227 24.9294 45.5946C24.8821 45.6135 24.8348 45.6307 24.784 45.6496C24.4898 45.7526 24.1815 45.811 23.868 45.8265C23.8172 45.8282 23.7647 45.8299 23.7121 45.8299C23.3075 45.8299 22.8942 45.7561 22.4826 45.6118C22.1445 45.4932 21.8047 45.3266 21.4719 45.1153C21.3248 45.0225 21.1794 44.9212 21.0393 44.8164C20.1828 44.1687 19.7012 43.3922 19.6066 42.5092C19.526 41.7602 19.7485 40.9768 20.2476 40.2398C20.2021 40.1539 20.1601 40.068 20.1163 39.9821C19.9341 39.6059 19.836 39.1867 19.7414 38.7813C19.6644 38.4514 19.5698 38.0425 19.4507 37.8604C19.2002 37.5942 19.1337 37.2454 19.272 36.9242C19.3824 36.6699 19.6118 36.4827 19.8833 36.4208C19.9026 36.3933 19.9236 36.3658 19.9481 36.3401C20.1145 36.1545 20.3545 36.048 20.6067 36.048C20.626 36.048 20.6435 36.048 20.6627 36.0497C20.9798 36.0704 21.3196 36.1614 21.6961 36.3298C21.4054 35.4605 21.3563 34.1978 21.5805 33.1516C21.3125 32.3562 20.9693 31.5247 20.6417 30.7413L20.5244 30.463C19.7414 28.5973 18.9323 26.6715 18.6975 24.7148C18.1774 24.9312 17.7325 25.0567 17.3454 25.0927C17.2263 25.1048 17.1072 25.1099 16.9933 25.1099C15.4345 25.1099 14.4309 24.0826 14.24 22.2891C13.9737 19.7774 14.5815 17.5716 15.9547 16.0787C17.0949 14.8298 18.6835 14.1718 20.5436 14.1718C21.2197 14.1718 21.9308 14.2594 22.6612 14.4347L22.8836 14.4879C24.1815 14.7937 25.947 15.2077 26.8596 16.333C27.2221 16.2625 27.5952 16.1973 27.97 16.1406C28.266 16.0959 28.5971 16.0633 28.9509 16.0461C29.3397 16.0169 29.7355 16.0014 30.1261 16.0014C31.4888 16.0014 32.4924 16.1818 32.9285 16.2608C33.0126 16.2643 33.0967 16.2729 33.1807 16.2866C34.1038 15.1974 35.8395 14.7886 37.1164 14.4879L37.3406 14.4347C38.0692 14.2594 38.7821 14.1718 39.4581 14.1718C41.3182 14.1718 42.9051 14.8298 44.0488 16.0753C45.422 17.5699 46.0298 19.7757 45.7636 22.2856C45.5726 24.0792 44.569 25.1065 43.0102 25.1065C42.8963 25.1065 42.7772 25.1013 42.6581 25.0893C42.2711 25.0532 41.8262 24.9278 41.306 24.7114C41.0713 26.6681 40.2621 28.5939 39.4792 30.4579L39.3618 30.7362C39.0588 31.4577 38.7418 32.2239 38.4808 32.9763C38.5754 33.5656 38.5859 34.2115 38.5141 34.8953C38.423 35.7577 38.1813 36.4981 37.7539 37.2179C37.9326 37.6508 38.0867 38.101 38.2128 38.5596C38.768 38.7435 39.2515 39.0647 39.7261 39.5664C40.5844 40.4769 40.9942 41.4715 40.9119 42.4439C40.8348 43.3389 40.3374 44.1584 39.4722 44.8129C39.3338 44.9177 39.1884 45.0191 39.0413 45.1118C38.705 45.3249 38.3652 45.4915 38.0289 45.6101C37.6191 45.7561 37.204 45.8282 36.8011 45.8282Z" fill="#231F20"/>
<path d="M39.458 14.3436C41.2656 14.3436 42.8086 14.9827 43.9191 16.1904C45.259 17.6472 45.851 19.8066 45.59 22.2684C45.4096 23.964 44.4691 24.9347 43.0101 24.9347C42.9015 24.9347 42.7894 24.9295 42.6755 24.9175C42.2552 24.878 41.756 24.7268 41.157 24.4571C40.9643 26.4688 40.1288 28.4599 39.3161 30.3908L39.2005 30.6674C38.8905 31.4061 38.5665 32.1895 38.302 32.9591C38.4001 33.5467 38.4124 34.1909 38.3405 34.8746C38.2495 35.737 38.0008 36.4809 37.5611 37.2007C37.7643 37.68 37.9342 38.18 38.0708 38.6902C38.6348 38.8568 39.1252 39.1764 39.5999 39.6797C40.4248 40.5541 40.8189 41.5042 40.7401 42.4267C40.6683 43.2719 40.1936 44.0501 39.3687 44.6738C39.2338 44.7751 39.0919 44.873 38.9501 44.9641C38.626 45.1685 38.2985 45.33 37.9745 45.4434C37.5804 45.5808 37.1863 45.6513 36.8027 45.6513C36.7537 45.6513 36.7046 45.6495 36.6556 45.6478C36.3596 45.6341 36.0671 45.5774 35.7886 45.4812C35.7431 45.4657 35.6975 45.4485 35.6537 45.4296C34.6554 45.0259 33.8602 44.057 33.5449 42.8974C32.5501 43.3097 31.275 43.533 29.8948 43.533C28.8456 43.533 27.793 43.4025 26.8892 43.1603C26.5301 44.2065 25.7752 45.0586 24.8645 45.4279C24.8189 45.4468 24.7751 45.4623 24.7261 45.4795C24.4494 45.5757 24.1569 45.6324 23.8626 45.6461C23.8136 45.6478 23.7645 45.6495 23.7155 45.6495C23.3319 45.6495 22.9378 45.5791 22.5455 45.4417C22.2214 45.3283 21.8922 45.1668 21.5699 44.9624C21.428 44.873 21.2861 44.7734 21.1495 44.6703C20.3316 44.0519 19.8727 43.3149 19.7833 42.4799C19.7045 41.7395 19.9357 40.9699 20.4542 40.2398C20.3929 40.1264 20.3351 40.013 20.2773 39.8962C20.1039 39.5371 20.0075 39.1283 19.9147 38.7314C19.8289 38.3621 19.7308 37.9463 19.5907 37.7436C19.3805 37.5271 19.3227 37.242 19.4348 36.9808C19.5329 36.7523 19.7466 36.5977 19.9918 36.5668C20.0163 36.5239 20.0461 36.4826 20.0794 36.4431C20.2125 36.2937 20.4051 36.2095 20.6066 36.2095C20.6223 36.2095 20.6363 36.2095 20.6521 36.2112C21.0987 36.2404 21.5664 36.4225 22.0323 36.6785C21.9973 36.6029 21.964 36.529 21.9324 36.4534C21.5856 35.6082 21.5173 34.227 21.7626 33.1309C21.4911 32.3166 21.1408 31.4663 20.8045 30.664L20.6871 30.3857C19.8762 28.4547 19.039 26.4636 18.848 24.4519C18.249 24.7199 17.7499 24.8711 17.3295 24.9123C17.2156 24.9226 17.1035 24.9295 16.995 24.9295C15.5359 24.9295 14.5954 23.9572 14.415 22.2633C14.154 19.8015 14.746 17.642 16.0859 16.1852C17.1911 14.9827 18.7342 14.3436 20.5435 14.3436C21.2056 14.3436 21.9044 14.4295 22.619 14.6013L22.8432 14.6545C24.1499 14.962 25.9346 15.3812 26.7859 16.5219C27.1817 16.4429 27.5881 16.3708 27.9962 16.3089C28.2869 16.2642 28.6109 16.2333 28.9595 16.2161C29.3483 16.1869 29.7407 16.1715 30.126 16.1715C31.4624 16.1715 32.4292 16.3433 32.9091 16.4309C33.023 16.436 33.1368 16.4498 33.2524 16.4738C34.1177 15.3692 35.8692 14.9586 37.1583 14.6545L37.3825 14.6013C38.0971 14.4295 38.7959 14.3436 39.458 14.3436ZM39.458 14C38.7679 14 38.0428 14.0893 37.2984 14.268L37.0742 14.3213C35.8026 14.6202 34.0826 15.0256 33.1088 16.1045C33.0545 16.0976 33.002 16.0942 32.9477 16.0907C32.4993 16.01 31.4922 15.8296 30.1242 15.8296C29.7301 15.8296 29.3308 15.8451 28.935 15.8743C28.5777 15.8914 28.2431 15.9241 27.9401 15.9705C27.6003 16.022 27.2588 16.0804 26.926 16.1457C25.9609 15.0342 24.2164 14.6236 22.9238 14.3195L22.7014 14.2663C21.9587 14.0893 21.2318 14 20.5435 14C18.6326 14 17.0002 14.6786 15.8214 15.9602C14.415 17.4908 13.7897 19.7448 14.0629 22.3045C14.2609 24.1667 15.3555 25.28 16.9915 25.28C17.1106 25.28 17.2349 25.2731 17.361 25.2628C17.7113 25.2301 18.1054 25.1288 18.552 24.957C18.8218 26.8588 19.6029 28.721 20.3613 30.5265L20.4787 30.8049C20.7992 31.5711 21.1338 32.3819 21.4 33.1601C21.2091 34.093 21.2266 35.1873 21.4315 36.0377C21.1635 35.9449 20.9131 35.8917 20.6749 35.8762C20.6521 35.8745 20.6293 35.8745 20.6066 35.8745C20.3035 35.8745 20.0163 36.0016 19.8166 36.2249C19.8044 36.2387 19.7921 36.2541 19.7798 36.2696C19.4821 36.3572 19.2351 36.5702 19.1125 36.8554C18.9514 37.2299 19.0285 37.6508 19.3122 37.9618C19.412 38.1233 19.5049 38.5218 19.5732 38.8156C19.6695 39.2296 19.7693 39.6591 19.9603 40.0525C19.9883 40.1109 20.0181 40.1693 20.0478 40.226C19.5644 40.9733 19.3542 41.7636 19.4348 42.5246C19.5346 43.4557 20.0391 44.2735 20.9358 44.9503C21.0795 45.0586 21.2301 45.1634 21.3807 45.2578C21.7258 45.476 22.0778 45.6495 22.4281 45.7715C22.859 45.9227 23.2916 46 23.7155 46C23.7698 46 23.8258 45.9983 23.8801 45.9966C24.2094 45.9811 24.5352 45.9193 24.8452 45.811C24.9012 45.7921 24.9503 45.7732 25.0011 45.7526C25.9101 45.385 26.6825 44.5827 27.1099 43.576C27.9751 43.777 28.9315 43.8835 29.8983 43.8835C31.1699 43.8835 32.3451 43.7031 33.326 43.3578C33.7288 44.471 34.531 45.3523 35.5241 45.7543C35.5732 45.7749 35.624 45.7921 35.6748 45.811C35.9883 45.921 36.3141 45.9828 36.6451 45.9983C36.6976 46 36.7537 46.0017 36.808 46.0017C37.2318 46.0017 37.6662 45.9244 38.0971 45.7732C38.4456 45.6513 38.7977 45.4777 39.1445 45.2578C39.2969 45.1616 39.4457 45.0586 39.5876 44.9503C40.4931 44.2649 41.0133 43.4042 41.0939 42.4593C41.1815 41.4372 40.7559 40.3978 39.8626 39.4512C39.4002 38.9616 38.908 38.6249 38.3668 38.4291C38.2512 38.0219 38.1129 37.6216 37.957 37.2334C38.3703 36.5153 38.605 35.7731 38.6961 34.9159C38.7679 34.2339 38.7592 33.5879 38.6681 32.9952C38.9255 32.2599 39.2356 31.5109 39.5316 30.8049L39.6472 30.5283C40.4056 28.7227 41.1885 26.8605 41.4565 24.9587C41.9049 25.1305 42.2972 25.2301 42.6475 25.2645C42.7719 25.2765 42.8962 25.2817 43.0171 25.2817C44.653 25.2817 45.7477 24.1702 45.9456 22.3062C46.2171 19.7465 45.5935 17.4926 44.1871 15.9619C43.0013 14.6786 41.3671 14 39.458 14Z" fill="#F1F2F2"/>
<path d="M24.8453 41.2705C26.0363 43.3921 34.095 43.7718 35.0478 40.6726C35.3613 39.6539 35.6678 38.776 35.4174 37.7178C35.2843 37.1526 35.0531 36.632 34.8989 36.0754C34.7711 35.6133 34.8394 35.3814 34.8078 34.9313C34.7133 33.5586 33.8393 32.0005 33.0966 30.9938C32.9075 30.7361 32.6955 30.4835 32.4678 30.2499C31.1455 30.1022 28.5234 29.9785 27.1748 30.0025C26.4216 30.6725 25.8471 31.717 25.3269 32.6052C23.9818 34.9021 23.3407 38.5922 24.8453 41.2705Z" fill="#C2C3CC"/>
<path d="M26.5145 37.3536L24.4319 35.5635C22.6769 38.0287 22.3249 40.7019 22.472 42.9094L26.045 42.3236C25.714 39.355 26.5145 37.3536 26.5145 37.3536Z" fill="white"/>
<path d="M35.7885 35.5359L33.706 37.326C33.706 37.326 34.4136 39.0955 34.2227 41.7738L37.7747 42.3441C37.8325 40.2482 37.4034 37.8036 35.7885 35.5359Z" fill="white"/>
<path d="M24.9732 40.8273C25.003 40.92 25.0293 41.0128 25.0538 41.1073C25.3655 42.327 24.2849 43.2066 23.1499 42.382C22.1393 41.6484 21.4492 40.8066 20.9045 39.6865C20.5717 38.9994 20.5489 37.8827 20.1005 37.3519C20.069 37.3261 20.0672 37.3278 20.0953 37.357C20.2371 37.4927 20.4999 37.6405 20.6557 37.7848C20.6733 37.5116 20.654 37.2385 20.6015 36.9825C21.3896 37.0323 22.4615 37.8518 23.1026 38.3036C23.9871 38.9238 24.6457 39.8085 24.9732 40.8273Z" fill="#E2A77F"/>
<path d="M22.5981 32.8457C22.2355 33.7631 22.2128 35.3814 22.5806 36.2816C22.9309 37.1388 23.6 37.8913 24.213 38.429C25.5687 39.6178 27.2589 40.1572 28.8825 40.262C31.2646 40.4149 33.7429 40.3977 35.6854 38.4668C36.6539 37.503 37.4719 36.5118 37.6435 34.8849C38.0954 30.6141 34.941 29.6503 32.2471 29.0336C29.7127 28.4529 25.8209 28.0338 23.9135 30.7704C23.5036 31.358 22.8783 32.1345 22.5981 32.8457Z" fill="#F15A29"/>
<path d="M19.6571 22.131C20.3507 18.7656 25.0745 17.527 28.1011 17.0665C28.6458 16.9841 29.2921 16.9532 29.998 16.9703C30.7038 16.9532 31.3501 16.9841 31.8948 17.0665C34.9232 17.527 39.6453 18.7673 40.3389 22.131C40.8923 24.8162 39.6558 27.6112 38.5295 30.2981C38.0146 31.5247 37.5242 32.7273 37.2352 33.8869C36.4225 37.1578 33.6796 39.197 30.2992 39.1575C30.1994 39.1558 30.0978 39.1523 29.9962 39.1489C29.8946 39.1523 29.793 39.1558 29.6932 39.1575C26.3128 39.197 23.5682 37.1578 22.7555 33.8869C22.4682 32.7273 21.9761 31.5247 21.4629 30.2981C20.3402 27.6112 19.1053 24.8162 19.6571 22.131Z" fill="white"/>
<path d="M28.0504 32.4042C28.4848 32.1345 29.2239 31.997 29.9963 32.0056C29.9981 32.0056 29.9981 32.0056 29.9998 32.0056C29.9998 32.0056 30.0016 32.0056 30.0033 32.0056C30.7758 31.997 31.5149 32.1345 31.9493 32.4042C34.016 33.6944 32.0684 35.5875 30.0033 35.7421C30.0016 35.7421 30.0016 35.7421 30.0016 35.7421C29.9998 35.7421 29.9998 35.7421 29.9981 35.7421C27.9313 35.5875 25.9836 33.6926 28.0504 32.4042Z" fill="#0B0808"/>
<path d="M30 37.948C30.1559 37.948 30.2838 37.8226 30.2838 37.6697V35.232C30.2838 35.0791 30.1577 34.9537 30 34.9537C29.8424 34.9537 29.7163 35.0774 29.7163 35.232V37.6697C29.7163 37.8226 29.8441 37.948 30 37.948Z" fill="#0B0808"/>
<path d="M26.6528 36.7197C26.7859 36.6407 26.961 36.6837 27.0416 36.8159C27.2693 37.1904 28.0627 37.589 28.4656 37.6663C29.0488 37.778 29.499 37.6337 29.9789 37.3777V37.3554C29.9859 37.3588 29.9929 37.3622 30.0016 37.3674C30.0086 37.364 30.0157 37.3605 30.0227 37.3554V37.3777C30.5026 37.6337 30.951 37.778 31.5342 37.6663C31.9371 37.589 32.7305 37.1887 32.9599 36.8159C33.0405 36.6837 33.2139 36.6407 33.3488 36.7197C33.4836 36.7988 33.5274 36.9688 33.4469 37.1011C33.0948 37.6801 32.0999 38.125 31.6428 38.2126C31.4659 38.247 31.2978 38.2624 31.1401 38.2624C30.704 38.2624 30.3362 38.1439 29.9999 37.9893C29.6636 38.1439 29.2958 38.2624 28.8597 38.2624C28.7003 38.2624 28.5339 38.247 28.357 38.2126C27.8998 38.125 26.905 37.6801 26.5529 37.1011C26.4741 36.9688 26.5179 36.7988 26.6528 36.7197Z" fill="#0B0808"/>
<path d="M36.4595 39.3362C37.5893 39.2434 38.3179 39.4169 39.0833 40.2295C40.3076 41.5282 40.4757 43.0486 38.9379 44.2134C38.8118 44.3079 38.6892 44.3938 38.5666 44.4711C38.705 43.9643 38.8066 43.4197 38.5596 42.9352C38.444 43.0108 38.409 43.1191 38.3634 43.2445C38.2513 43.5537 38.1638 43.8698 38.0657 44.1842C37.9886 44.4333 37.8327 44.6171 37.7434 44.8559C37.7416 44.8628 37.7381 44.8713 37.7346 44.8799C37.3633 45.0105 37.013 45.0603 36.6855 45.0449C36.6925 45.0208 36.6977 44.9968 36.703 44.9779C36.8764 44.3817 37.0988 43.6928 36.7958 43.0967C36.6802 43.1723 36.6452 43.2805 36.5997 43.4077C36.4876 43.7186 36.4 44.0347 36.3019 44.3474C36.2353 44.5604 36.1127 44.7253 36.0234 44.9177C35.9884 44.9057 35.9534 44.892 35.9183 44.8782C33.6449 43.9574 33.1474 39.611 36.4595 39.3362Z" fill="white"/>
<path d="M38.0657 44.1842C38.1637 43.8698 38.2496 43.5537 38.3634 43.2445C38.409 43.1191 38.4457 43.0091 38.5596 42.9352C38.8065 43.4197 38.7067 43.9643 38.5666 44.4711C38.2793 44.6532 38.0026 44.7872 37.7364 44.8817C37.7381 44.8731 37.7416 44.8662 37.7451 44.8576C37.8327 44.6154 37.9886 44.4333 38.0657 44.1842Z" fill="#514539"/>
<path d="M36.5995 43.406C36.645 43.2806 36.6818 43.1707 36.7956 43.0951C37.1004 43.6912 36.8762 44.3801 36.7028 44.9762C36.6976 44.9951 36.6906 45.0192 36.6853 45.0432C36.4506 45.0329 36.2299 44.9883 36.0232 44.9161C36.1126 44.7237 36.2352 44.5588 36.3017 44.3458C36.3998 44.0314 36.4874 43.7153 36.5995 43.406Z" fill="#514539"/>
<path d="M24.0519 39.3362C22.9222 39.2434 22.1935 39.4169 21.4281 40.2295C20.2038 41.5282 20.0357 43.0486 21.5735 44.2134C21.6996 44.3079 21.8222 44.3938 21.9448 44.4711C21.8047 43.9643 21.7049 43.4197 21.9518 42.9352C22.0657 43.0108 22.1025 43.1191 22.148 43.2445C22.2601 43.5537 22.3477 43.8698 22.4458 44.1842C22.5228 44.4333 22.6787 44.6171 22.768 44.8559C22.7715 44.8628 22.7733 44.8713 22.7768 44.8799C23.1481 45.0105 23.4984 45.0603 23.826 45.0449C23.8189 45.0208 23.8137 44.9968 23.8084 44.9779C23.635 44.3817 23.4126 43.6928 23.7156 43.0967C23.8312 43.1723 23.8662 43.2805 23.9118 43.4077C24.0239 43.7186 24.1114 44.0347 24.2095 44.3474C24.2761 44.5604 24.3987 44.7253 24.488 44.9177C24.5231 44.9057 24.5581 44.892 24.5931 44.8782C26.8666 43.9574 27.364 39.611 24.0519 39.3362Z" fill="white"/>
<path d="M22.4457 44.1842C22.3476 43.8698 22.2618 43.5537 22.148 43.2445C22.1024 43.1191 22.0657 43.0091 21.9518 42.9352C21.7048 43.4197 21.8064 43.9643 21.9448 44.4711C22.2303 44.6532 22.5088 44.7872 22.775 44.8817C22.7715 44.8731 22.7698 44.8662 22.7663 44.8576C22.6787 44.6154 22.5228 44.4333 22.4457 44.1842Z" fill="#514539"/>
<path d="M23.9119 43.406C23.8664 43.2806 23.8296 43.1707 23.7157 43.0951C23.411 43.6912 23.6352 44.3801 23.8086 44.9762C23.8138 44.9951 23.8208 45.0192 23.8261 45.0432C24.059 45.0329 24.2815 44.9883 24.4882 44.9161C24.3988 44.7237 24.2762 44.5588 24.2097 44.3458C24.1116 44.0314 24.024 43.7153 23.9119 43.406Z" fill="#514539"/>
<path d="M40.3619 22.3217C40.0782 20.9491 39.1236 19.9303 37.8888 19.1727C35.5085 17.9118 34.5206 17.2074 32.8322 17.1937C31.6674 16.972 27.2379 16.1406 22.1147 19.1727C20.8782 19.9286 19.9236 20.9473 19.6416 22.3217C19.0881 25.0068 20.3247 27.8019 21.4509 30.4888C21.8975 31.5539 22.3267 32.6018 22.6209 33.6188C24.3777 28.5784 29.7058 30.4149 30.0508 27.6868L30.247 26.1441C30.2943 25.773 29.965 25.4604 29.5884 25.5171L28.0663 25.7662C27.7213 25.7662 27.5129 25.6219 27.7178 25.2714C28.259 24.3403 30.3888 21.059 31.7375 18.9494C31.3259 20.499 30.8758 22.612 30.7899 22.8663C30.5798 23.483 31.4643 23.2082 31.4643 23.2082C31.9792 23.1789 32.7446 23.0896 32.5344 23.55L31.0246 27.6937C29.8284 30.7602 37.3721 29.5491 37.3861 33.6171C37.6804 32.6001 38.1095 31.5522 38.5561 30.487C39.6788 27.8019 40.9154 25.0068 40.3619 22.3217Z" fill="#B76C00"/>
<path d="M44.8931 22.2752C44.7617 23.5053 44.1749 24.4502 42.744 24.3127C40.4985 24.098 34.892 19.5197 34.3893 19.0885C33.757 18.5439 33.1072 17.9546 33.75 17.0459C34.4786 16.0151 36.372 15.6268 37.5455 15.3468C42.532 14.1563 45.3922 17.5698 44.8931 22.2752Z" fill="#48250D"/>
<path d="M15.1069 22.2752C15.2382 23.5053 15.825 24.4502 17.2577 24.3127C19.5032 24.098 25.1097 19.5197 25.6124 19.0885C26.2447 18.5439 26.8928 17.9546 26.25 17.0459C25.5213 16.0151 23.628 15.6268 22.4544 15.3468C17.4679 14.1563 14.6077 17.5698 15.1069 22.2752Z" fill="#48250D"/>
<path d="M23.4248 26.3949C23.4248 27.685 24.0273 28.7313 24.77 28.7313C25.5143 28.7313 26.1151 27.685 26.1151 26.3949C26.1151 25.1047 25.5126 24.0585 24.77 24.0585C24.0273 24.0585 23.4248 25.1047 23.4248 26.3949Z" fill="#0B0808"/>
<path d="M24.2901 25.2766C24.2901 25.7713 24.5055 26.1733 24.7718 26.1733C25.038 26.1733 25.2534 25.7731 25.2534 25.2766C25.2534 24.7818 25.038 24.3815 24.7718 24.3815C24.5055 24.3815 24.2901 24.7818 24.2901 25.2766Z" fill="white"/>
<path d="M33.8831 26.3949C33.8831 27.685 34.4856 28.7313 35.2282 28.7313C35.9726 28.7313 36.5751 27.685 36.5751 26.3949C36.5751 25.1047 35.9726 24.0585 35.2282 24.0585C34.4856 24.0585 33.8831 25.1047 33.8831 26.3949Z" fill="#0B0808"/>
<path d="M34.7553 25.3967C34.7553 25.8915 34.9708 26.2935 35.237 26.2935C35.5032 26.2935 35.7187 25.8932 35.7187 25.3967C35.7187 24.9019 35.5032 24.5016 35.237 24.5016C34.9708 24.5016 34.7553 24.9019 34.7553 25.3967Z" fill="white"/>
</g>
<defs>
<clipPath id="clip0_1:248">
<rect width="32" height="32" fill="white" transform="translate(14 14)"/>
</clipPath>
</defs>
</svg>
