<svg width="60" height="60" viewBox="0 0 60 60" fill="none" xmlns="http://www.w3.org/2000/svg">
<circle cx="30" cy="30" r="30" fill="white"/>
<path fill-rule="evenodd" clip-rule="evenodd" d="M21.7513 13.8767C22.7385 13.0677 24.0512 12.804 25.269 13.1467L24.7989 14.8174L25.269 13.1467L41.1349 17.6112L41.1349 17.6112C42.348 17.9526 43.3217 18.8521 43.7713 20.0188C43.7713 20.0188 43.7714 20.0188 43.7714 20.0188L47.7326 30.2979L47.7326 30.298C48.3918 32.0087 47.8065 33.986 46.2329 35.011L28.1389 46.7982C28.1389 46.7982 28.1389 46.7983 28.1389 46.7983C26.147 48.0959 23.5392 47.2982 22.4949 45.2519L22.4949 45.2519L12.4372 25.543C12.4372 25.543 12.4372 25.543 12.4372 25.543C11.6052 23.9126 11.977 21.8868 13.4266 20.6988L13.4266 20.6988L21.7513 13.8767L21.7513 13.8767ZM24.217 16.8855L24.7273 15.072L24.217 16.8855L24.2366 17.0116L16.0132 23.7506L26.0372 43.3935L43.9864 31.7006L40.0393 21.4583M44.0001 31.7363C44.0002 31.7366 44.0003 31.7367 44.0003 31.7367C44.0003 31.7367 44.0003 31.7365 44.0003 31.7362L44.0797 31.7056L44.0798 31.7056L45.8664 31.0171L44.0798 31.7055L44.0797 31.7056M44.0494 31.6595C44.0495 31.6594 44.0496 31.6594 44.0497 31.6593L44.0496 31.6594L44.0494 31.6595ZM25.9558 43.4465C25.9557 43.4466 25.9556 43.4467 25.9555 43.4467L25.9555 43.4467L25.9558 43.4465Z" fill="#3A53CF"/>
</svg>
