<svg width="61" height="61" viewBox="0 0 61 61" fill="none" xmlns="http://www.w3.org/2000/svg">
<circle cx="31" cy="30" r="30" fill="#283137"/>
<path d="M60.0922 37.261C56.0854 53.3324 39.8078 63.1133 23.7345 59.1055C7.66776 55.0987 -2.11309 38.8201 1.89562 22.7496C5.90058 6.67633 22.1782 -3.10544 38.2468 0.9014C54.3192 4.90823 64.0991 21.1887 60.0922 37.261V37.261Z" fill="#F7931A"/>
<path d="M44.2203 25.7299C44.8175 21.7381 41.7782 19.5922 37.6223 18.1606L38.9704 12.7532L35.6789 11.9329L34.3664 17.1978C33.5011 16.9822 32.6123 16.7788 31.7292 16.5772L33.0511 11.2776L29.7614 10.4573L28.4124 15.8628C27.6961 15.6997 26.993 15.5385 26.3105 15.3688L26.3143 15.3519L21.7749 14.2185L20.8993 17.7341C20.8993 17.7341 23.3415 18.2938 23.2899 18.3284C24.623 18.6613 24.864 19.5434 24.8237 20.2428L23.288 26.4031C23.3799 26.4265 23.499 26.4602 23.6302 26.5127C23.5206 26.4856 23.4034 26.4555 23.2824 26.4265L21.1299 35.0561C20.9668 35.4611 20.5534 36.0686 19.6215 35.838C19.6543 35.8858 17.2291 35.2408 17.2291 35.2408L15.595 39.0086L19.8784 40.0763C20.6753 40.276 21.4562 40.4851 22.2249 40.682L20.8628 46.1513L24.1505 46.9716L25.4996 41.5604C26.3977 41.8041 27.2696 42.0292 28.1227 42.241L26.7783 47.6269L30.0699 48.4472L31.432 42.9882C37.0448 44.0504 41.2654 43.6219 43.0419 38.5454C44.4735 34.458 42.9707 32.1002 40.0176 30.5627C42.1682 30.0668 43.7882 28.6521 44.2203 25.7299V25.7299ZM36.6998 36.2758C35.6826 40.3632 28.8005 38.1536 26.5693 37.5995L28.3768 30.3536C30.608 30.9105 37.7629 32.013 36.6998 36.2758ZM37.7179 25.6709C36.7898 29.389 31.0617 27.4999 29.2036 27.0368L30.8424 20.465C32.7005 20.9281 38.6845 21.7925 37.7179 25.6709Z" fill="white"/>
</svg>
