<svg width="60" height="60" viewBox="0 0 60 60" fill="none" xmlns="http://www.w3.org/2000/svg">
<circle cx="30" cy="30" r="30" fill="white"/>
<path d="M29.0004 31.912H41.0356L42.9476 30L41.0356 28.0881H29.0004C27.9438 28.0881 27.0885 28.9435 27.0885 30C27.0885 31.0566 27.9438 31.912 29.0004 31.912Z" fill="#00CCCC"/>
<path d="M29.0002 21.0439C24.0593 21.0439 20.0443 25.0591 20.0443 29.9999C20.0443 34.9408 24.0593 38.9559 29.0002 38.9559H33.9914L37.8153 35.1321H29.0002C26.1726 35.1321 23.8682 32.8276 23.8682 29.9999C23.8682 27.1722 26.1726 24.8678 29.0002 24.8678H37.8153L33.9914 21.0439H29.0002Z" fill="#00CCCC"/>
<path d="M44.9998 38.9557V35.1318H42.1219L38.298 38.9557H44.9998Z" fill="#00CCCC"/>
<path d="M17.6893 18.6893C14.6604 21.7082 13 25.7233 13 30C13 34.2767 14.6604 38.2919 17.6893 41.3107C20.7082 44.3296 24.7333 46 29 46H44.9999V42.1761H29C25.7497 42.1761 22.6905 40.9082 20.3862 38.6139C18.0918 36.3095 16.8239 33.2503 16.8239 30C16.8239 26.7497 18.0918 23.6906 20.3862 21.3862C22.6905 19.0918 25.7497 17.8239 29 17.8239H44.9999V14H29C24.7232 14 20.7082 15.6604 17.6893 18.6893Z" fill="#00CCCC"/>
<path d="M42.1219 24.8678H44.9998V21.0439H38.298L42.1219 24.8678Z" fill="#00CCCC"/>
</svg>
