<svg width="60" height="60" viewBox="0 0 60 60" fill="none" xmlns="http://www.w3.org/2000/svg">
<circle cx="30" cy="30" r="30" fill="white"/>
<path d="M40.2281 19.9295C37.7959 17.953 34.8961 16.8236 31.9027 16.8236C28.6287 16.8236 25.4481 18.0471 23.0159 20.4C20.5838 22.753 19.1806 25.7648 18.9935 29.1529V29.5295H20.4902V29.2471C20.8644 23.2236 25.9158 18.5177 31.9027 18.5177C34.6154 18.5177 37.1412 19.4589 39.1991 21.153L39.2927 21.2471L40.4152 20.1177L40.2281 19.9295Z" fill="black"/>
<path d="M38.7315 34.8942C37.1413 37.0588 34.6155 38.3765 31.9027 38.3765C27.2255 38.3765 23.4837 34.6118 23.4837 29.9058C23.4837 25.2942 27.2255 21.5295 31.9027 21.5295C34.6155 21.5295 37.1413 22.8471 38.7315 25.0118L38.825 25.2L39.9475 24.0706L39.854 23.9765C37.9831 21.4353 34.9896 20.0236 31.9027 20.0236C26.3836 19.9294 21.987 24.4471 21.987 29.9058C21.987 35.4588 26.4771 39.8823 31.9027 39.8823C34.9896 39.8823 37.9831 38.3765 39.854 35.9294L39.9475 35.8352L38.825 34.7059L38.7315 34.8942Z" fill="black"/>
<path d="M42.0054 21.812C41.7249 21.5296 41.5378 21.1532 41.2571 20.8708L41.1635 20.7767L40.041 21.9061L40.1346 22.0002C40.4152 22.2826 40.6959 22.5649 40.8829 22.9414L40.9764 23.1296L42.099 22.0002L42.0054 21.812Z" fill="black"/>
<path d="M39.1989 38.7528L39.1054 38.847C37.0474 40.541 34.5217 41.4822 31.809 41.4822C25.8221 41.4822 20.7706 36.7763 20.3965 30.7527V30.3763H18.8997V30.7527C19.0868 34.0469 20.5836 37.1528 22.9222 39.5058C25.3543 41.7645 28.5349 43.0822 31.809 43.0822C34.8959 43.0822 37.7957 41.9527 40.1344 39.9763L40.2279 39.8822L39.1989 38.7528Z" fill="black"/>
<path d="M40.9764 36.8705L40.8829 37.0587C40.6959 37.3411 40.4152 37.6234 40.1346 37.9999L40.041 38.0939L41.1635 39.2234L41.2571 39.1293C41.5378 38.8469 41.8184 38.4705 42.0054 38.1881L42.099 38.0939L40.9764 36.8705Z" fill="black"/>
<path d="M42.9408 39.1294C40.2281 42.4235 36.2056 44.4 31.9026 44.4C23.9513 44.4 17.5903 37.9058 17.5903 29.9059C17.5903 21.9059 23.9513 15.5059 31.9026 15.5059C36.2056 15.5059 40.2281 17.3882 42.9408 20.7765L43.0344 20.9647L44.1569 19.8353L44.0634 19.7412C41.07 16.0706 36.5798 14 31.9026 14C23.1094 14 16 21.1529 16 29.9999C16 38.847 23.1094 46 31.9026 46C36.5798 46 41.07 43.9294 44.0634 40.2588L44.1569 40.1647L43.0344 39.0352L42.9408 39.1294Z" fill="black"/>
</svg>
