<svg width="60" height="60" viewBox="0 0 60 60" fill="none" xmlns="http://www.w3.org/2000/svg">
<circle cx="30" cy="30" r="30" fill="white"/>
<path fill-rule="evenodd" clip-rule="evenodd" d="M45.7662 26.0057C45.7466 27.3372 45.6109 28.6644 45.3607 29.9724C43.606 39.0956 38.3703 43.6573 29.6539 43.6573H24.126L24.1412 43.5916L25.4739 37.3013H29.2817C34.0051 37.3013 36.866 34.6155 37.8642 29.2441C37.9347 28.9005 37.9927 28.554 38.0375 28.2027L45.6148 23.8296C45.7153 24.5506 45.7659 25.2777 45.7662 26.0057ZM42.9913 18.0904L36.1965 22.0133C35.0264 21.3241 33.6792 20.9946 32.3231 21.0661H21.3588L21.3921 20.9081L22.6886 14.831H34.0651C35.5201 14.8133 36.9707 14.9969 38.3754 15.3765C39.991 15.8096 41.4738 16.6371 42.6905 17.7848C42.7933 17.8867 42.8923 17.9866 42.9913 18.0904Z" fill="#6847B1"/>
<path fill-rule="evenodd" clip-rule="evenodd" d="M32.1564 26.4768L31.1493 32.7595H26.4429L24.1412 43.5924L24.1259 43.6581H13.7661L17.6557 38.4092L20.2078 26.4768H32.1564Z" fill="#00D0C4"/>
</svg>
