<svg width="60" height="60" viewBox="0 0 60 60" fill="none" xmlns="http://www.w3.org/2000/svg">
<circle cx="30" cy="30" r="30" fill="white"/>
<path d="M25.3571 20.678L23.7505 26.9579L13 28.3899L25.3571 20.678Z" fill="#57BAE5"/>
<path d="M30.9525 34.5997L27.4738 33.1258L28.2701 45.9999L30.9525 34.5997Z" fill="#005472"/>
<path d="M23.7505 26.9579L20.9214 32.9024L13 28.3899L23.7505 26.9579Z" fill="#34AFE4"/>
<path d="M27.4736 33.1259L20.9213 32.9023L28.2699 45.9999L27.4736 33.1259Z" fill="#0076A7"/>
<path d="M23.7504 26.9579L27.4736 33.1259L20.9213 32.9024L23.7504 26.9579Z" fill="#009DE2"/>
<path d="M25.3572 20.678L34.2775 21.8236L23.7506 26.9579L25.3572 20.678Z" fill="#7ACDF2"/>
<path d="M44.0431 17.8279L38.4269 24.5059L38.8251 18.3238L44.0431 17.8279Z" fill="#7ACDF2"/>
<path d="M44.043 17.828L47.1584 14L46.4739 18.1284L44.043 17.828Z" fill="#7ACDF2"/>
<path d="M41.0184 21.2996L46.474 18.1282L44.0431 17.8279L41.0184 21.2996Z" fill="#00ABE7"/>
<path d="M30.9525 34.5999L31.2179 26.937L27.4738 33.126L30.9525 34.5999Z" fill="#0076A7"/>
<path d="M31.2179 26.937L27.4738 33.126L23.7506 26.9579L31.2179 26.937Z" fill="#008DBE"/>
<path d="M34.2775 21.8237L31.2179 26.937L23.7506 26.9579L34.2775 21.8237Z" fill="#57BAE5"/>
<path d="M31.218 26.937L30.9526 34.5999L37.7982 41.7739L31.218 26.937Z" fill="#00698D"/>
<path d="M41.3818 37.7642L37.7634 28.5714L37.7983 41.7738L41.3818 37.7642Z" fill="#09A1CB"/>
<path d="M38.4271 24.5061L37.7635 28.5716L31.2182 26.937L38.4271 24.5061Z" fill="#09A1CB"/>
<path d="M41.7451 30.0316L37.7634 28.5716L38.427 24.5061L41.7451 30.0316Z" fill="#8BDAFF"/>
<path d="M43.1699 37.5056L38.832 30.3945H41.3049L43.1699 37.5056Z" fill="#7ACDF2"/>
<path d="M35.0949 20.3148L38.4269 24.506L38.825 18.3239L35.0949 20.3148Z" fill="#57BAE5"/>
<path d="M37.7635 28.5715L31.2182 26.937L37.7984 41.7739L37.7635 28.5715Z" fill="#008DBE"/>
<path d="M41.3817 37.7642L42.8277 38.5885L37.8192 41.7738L41.3817 37.7642Z" fill="#0076A7"/>
<path d="M43.1701 37.4289L37.7634 28.5714L41.3818 37.7642L43.1701 37.4289Z" fill="#57BAE5"/>
<path d="M35.0951 20.3147L31.2182 26.9369L38.4271 24.506L35.0951 20.3147Z" fill="#7ACDF2"/>
</svg>
