<svg width="60" height="60" viewBox="0 0 60 60" fill="none" xmlns="http://www.w3.org/2000/svg">
<circle cx="30" cy="30" r="30" fill="white"/>
<g clip-path="url(#clip0_1:59)">
<path d="M45.2826 34.346L37.8765 21.7017C36.5363 19.4438 33.2565 19.4438 31.9163 21.7017L24.5101 34.346C23.17 36.6039 24.8276 39.4175 27.5079 39.4175H42.3202C44.9653 39.4175 46.5876 36.6039 45.2826 34.346Z" fill="#00B897"/>
<path d="M35.4066 34.5906L34.9833 33.8611C34.5954 33.1664 33.7138 31.7074 33.7138 31.7074L27.8241 21.7032C26.4839 19.4453 23.204 19.4453 21.8638 21.7032L14.4577 34.3474C13.1175 36.6054 14.7751 39.419 17.4554 39.419H32.1266H38.2279H42.319C38.6512 39.419 37.0994 37.4738 35.4066 34.5906Z" fill="#76FCB2"/>
<path d="M35.4078 34.5893L34.9846 33.8598C34.5966 33.1651 33.7149 31.7061 33.7149 31.7061L29.8708 25.1755L24.5101 34.3461C23.17 36.604 24.8276 39.4177 27.5079 39.4177H32.1279H38.2292H42.3202C38.6524 39.4177 37.1006 37.4725 35.4078 34.5893Z" fill="url(#paint0_linear_1:59)"/>
</g>
<defs>
<linearGradient id="paint0_linear_1:59" x1="22.4945" y1="30.1887" x2="39.5361" y2="36.4861" gradientUnits="userSpaceOnUse">
<stop stop-color="#53E57A" stop-opacity="0"/>
<stop offset="1" stop-color="#00A977"/>
</linearGradient>
<clipPath id="clip0_1:59">
<rect width="32" height="19.7647" fill="white" transform="translate(14 20)"/>
</clipPath>
</defs>
</svg>
