<svg width="60" height="60" viewBox="0 0 60 60" fill="none" xmlns="http://www.w3.org/2000/svg">
<circle cx="30" cy="30" r="30" fill="#D534AE"/>
<path d="M25.208 16.332C24.791 16.2677 24.7734 16.2601 24.9697 16.2301C25.3457 16.1727 26.2338 16.251 26.8457 16.3956C28.2744 16.7331 29.5743 17.5978 30.962 19.1334L31.3307 19.5413L31.858 19.457C34.0798 19.1022 36.34 19.3842 38.2304 20.2522C38.7504 20.491 39.5705 20.9663 39.673 21.0885C39.7056 21.1274 39.7654 21.378 39.806 21.6454C39.9464 22.5705 39.8761 23.2796 39.5916 23.8092C39.4366 24.0974 39.4279 24.1888 39.5321 24.4354C39.6153 24.6323 39.8471 24.7779 40.0766 24.7776C40.5463 24.777 41.0519 24.0222 41.2863 22.972L41.3794 22.5548L41.5637 22.7623C42.5749 23.9011 43.3693 25.4541 43.5057 26.5595L43.5412 26.8477L43.3713 26.5857C43.0788 26.1348 42.7847 25.8279 42.4084 25.5804C41.7298 25.1342 41.0124 24.9823 39.1126 24.8828C37.3966 24.7929 36.4254 24.6473 35.4624 24.3351C33.8239 23.8042 32.998 23.0971 31.0517 20.5592C30.1873 19.4319 29.653 18.8082 29.1215 18.3059C27.9138 17.1647 26.7271 16.5661 25.208 16.332Z" fill="white"/>
<path d="M40.0597 18.8489C40.1029 18.0935 40.2058 17.5953 40.4131 17.1402C40.4952 16.9601 40.5719 16.8127 40.5839 16.8127C40.5957 16.8127 40.5599 16.9457 40.5045 17.1081C40.3539 17.5497 40.3291 18.1537 40.4329 18.8564C40.5646 19.748 40.6396 19.8767 41.5878 20.8398C42.0324 21.2916 42.5498 21.8613 42.7372 22.106L43.0783 22.5507L42.7372 22.2329C42.3203 21.8441 41.3614 21.0861 41.1496 20.9777C41.0075 20.905 40.9864 20.9063 40.8988 20.9929C40.8181 21.0728 40.801 21.1928 40.7899 21.7601C40.7724 22.6443 40.6511 23.2118 40.3586 23.7792C40.2002 24.0862 40.1752 24.0207 40.3184 23.6742C40.4253 23.4156 40.4362 23.3019 40.4355 22.4459C40.4338 20.7262 40.2284 20.3127 39.0238 19.6044C38.7187 19.425 38.2157 19.1663 37.9063 19.0294C37.5969 18.8925 37.3512 18.7733 37.3601 18.7644C37.3942 18.7307 38.569 19.0715 39.042 19.2523C39.7454 19.5212 39.8614 19.556 39.9468 19.5236C40.0042 19.5018 40.0319 19.3361 40.0597 18.8489Z" fill="white"/>
<path d="M26.0185 21.7907C25.1719 20.6322 24.6481 18.8561 24.7615 17.5283L24.7965 17.1174L24.9892 17.1524C25.3511 17.218 25.9751 17.4488 26.2673 17.6252C27.0691 18.1092 27.4162 18.7464 27.7693 20.3826C27.8728 20.8619 28.0085 21.4043 28.0709 21.5879C28.1715 21.8834 28.5514 22.5738 28.8602 23.0221C29.0827 23.345 28.9349 23.498 28.4432 23.4539C27.6921 23.3865 26.6748 22.6887 26.0185 21.7907Z" fill="white"/>
<path d="M39.0334 30.4122C35.077 28.829 33.6836 27.4547 33.6836 25.1358C33.6836 24.7946 33.6954 24.5154 33.7098 24.5154C33.7242 24.5154 33.8773 24.628 34.05 24.7657C34.8523 25.4052 35.7507 25.6784 38.2377 26.039C39.7014 26.2512 40.525 26.4227 41.2847 26.6731C43.6995 27.4691 45.1935 29.0844 45.5499 31.2846C45.6534 31.9239 45.5927 33.1228 45.4248 33.7547C45.2924 34.2538 44.8879 35.1533 44.7806 35.1879C44.7509 35.1975 44.7218 35.0841 44.7141 34.93C44.6735 34.1038 44.2535 33.2995 43.548 32.697C42.7459 32.012 41.6684 31.4666 39.0334 30.4122Z" fill="white"/>
<path d="M36.2551 31.0702C36.2055 30.777 36.1195 30.4026 36.064 30.2381L35.9631 29.9392L36.1506 30.1484C36.4101 30.4379 36.6151 30.8083 36.7889 31.3016C36.9216 31.6782 36.9365 31.7902 36.9355 32.4021C36.9345 33.0028 36.9179 33.1287 36.7954 33.4677C36.6023 34.0021 36.3626 34.3811 35.9604 34.7879C35.2377 35.519 34.3085 35.9237 32.9677 36.0916C32.7346 36.1206 32.0553 36.1699 31.458 36.2007C29.953 36.2785 28.9624 36.4393 28.0723 36.75C27.9443 36.7946 27.83 36.8219 27.8184 36.8103C27.7824 36.7746 28.3884 36.4156 28.889 36.1759C29.5948 35.8379 30.2974 35.6536 31.8716 35.393C32.6492 35.2642 33.4523 35.1081 33.6562 35.046C35.582 34.4591 36.5719 32.9447 36.2551 31.0702Z" fill="white"/>
<path d="M38.0689 34.2715C37.5432 33.1484 37.4225 32.064 37.7105 31.0527C37.7413 30.9446 37.7908 30.8562 37.8206 30.8562C37.8504 30.8562 37.9745 30.9228 38.0962 31.0043C38.3385 31.1664 38.8244 31.4393 40.1186 32.1407C41.7337 33.0159 42.6547 33.6936 43.2809 34.4679C43.8294 35.146 44.1687 35.9184 44.3321 36.8602C44.4246 37.3935 44.3702 38.6771 44.2325 39.2142C43.7983 40.908 42.7891 42.2384 41.3496 43.0147C41.1387 43.1285 40.9493 43.2219 40.9289 43.2223C40.9083 43.2228 40.9853 43.0285 41.0997 42.7908C41.5838 41.7846 41.639 40.806 41.2729 39.7167C41.0487 39.0496 40.5916 38.2358 39.6689 36.8602C38.5958 35.2611 38.3328 34.8355 38.0689 34.2715Z" fill="white"/>
<path d="M23.2081 40.3311C24.6763 39.099 26.5031 38.2237 28.1672 37.9549C28.8843 37.8392 30.079 37.8851 30.7431 38.0541C31.8076 38.3248 32.7598 38.9313 33.255 39.6539C33.739 40.3599 33.9466 40.9753 34.1628 42.3445C34.2481 42.8847 34.3408 43.4269 34.3689 43.5498C34.5312 44.2594 34.8472 44.8264 35.2387 45.1114C35.8605 45.5638 36.9312 45.5918 37.9845 45.1835C38.1632 45.1141 38.3184 45.0662 38.3293 45.077C38.3676 45.1147 37.8372 45.4676 37.463 45.6534C36.9595 45.9033 36.5592 46 36.0272 46C35.0625 46 34.2616 45.5124 33.5933 44.5178C33.4618 44.3219 33.1662 43.7358 32.9364 43.2149C32.2308 41.6153 31.8824 41.1281 31.0631 40.5948C30.3501 40.1309 29.4306 40.0477 28.7389 40.3848C27.8303 40.8276 27.5768 41.9817 28.2275 42.7131C28.4862 43.0038 28.9685 43.2544 29.3629 43.3032C30.1008 43.3945 30.7349 42.8366 30.7349 42.0961C30.7349 41.6153 30.549 41.341 30.081 41.131C29.4417 40.8443 28.7546 41.1796 28.7579 41.7763C28.7593 42.0309 28.8708 42.1906 29.1275 42.3061C29.2922 42.3802 29.296 42.386 29.1617 42.3582C28.5752 42.2374 28.4378 41.5346 28.9094 41.068C29.4756 40.5081 30.6463 40.7551 31.0484 41.5198C31.2173 41.8409 31.2369 42.4804 31.0896 42.8665C30.7601 43.7309 29.7991 44.1853 28.8243 43.9381C28.1605 43.7695 27.8903 43.5872 27.0901 42.7681C25.6996 41.3443 25.1598 41.0685 23.1551 40.7576L22.771 40.6979L23.2081 40.3311Z" fill="white"/>
<path fill-rule="evenodd" clip-rule="evenodd" d="M16.6839 14.8515C21.3275 20.4532 24.5258 22.7643 24.8812 23.2526C25.1747 23.6558 25.0642 24.0183 24.5615 24.3023C24.2819 24.4603 23.7071 24.6203 23.4194 24.6203C23.0939 24.6203 22.9821 24.4955 22.9821 24.4955C22.7934 24.3176 22.6871 24.3487 21.7179 22.6389C20.3724 20.5637 19.2464 18.8423 19.2156 18.8135C19.1446 18.7469 19.1458 18.7491 21.5807 23.0792C21.9741 23.9817 21.659 24.313 21.659 24.4416C21.659 24.703 21.5872 24.8405 21.2627 25.2003C20.7216 25.8002 20.4798 26.4742 20.3052 27.8692C20.1095 29.433 19.5591 30.5376 18.0339 32.4282C17.1411 33.5349 16.995 33.7377 16.7697 34.1837C16.486 34.7454 16.408 35.0601 16.3763 35.7693C16.3429 36.5193 16.408 37.0038 16.6385 37.7208C16.8403 38.3486 17.051 38.7631 17.5895 39.592C18.0543 40.3074 18.3219 40.8392 18.3219 41.0472C18.3219 41.2126 18.3537 41.2129 19.0739 41.0512C20.7973 40.6644 22.1968 39.9841 22.9838 39.1503C23.471 38.6342 23.5853 38.3493 23.589 37.6423C23.5915 37.1797 23.5751 37.0828 23.4493 36.8167C23.2445 36.3836 22.8717 36.0234 22.05 35.4652C20.9735 34.7337 20.5136 34.1448 20.3866 33.3349C20.2824 32.6704 20.4033 32.2016 20.9989 30.9609C21.6153 29.6767 21.7681 29.1295 21.8714 27.835C21.9382 26.9988 22.0306 26.669 22.2724 26.4042C22.5245 26.1282 22.7515 26.0347 23.3755 25.9499C24.3927 25.8118 25.0405 25.5502 25.573 25.0626C26.0348 24.6395 26.2281 24.2319 26.2578 23.6183L26.2803 23.1532L26.0222 22.854C25.0874 21.7708 16.0579 14 16.0004 14C15.9881 14 16.2957 14.3832 16.6839 14.8515ZM18.8466 36.618C19.058 36.2458 18.9457 35.7677 18.5922 35.534C18.2581 35.3133 17.7392 35.4173 17.7392 35.705C17.7392 35.7928 17.7881 35.8566 17.8981 35.913C18.0835 36.0077 18.0969 36.1143 17.9511 36.3321C17.8034 36.5528 17.8154 36.7468 17.9848 36.8785C18.2578 37.091 18.6442 36.9741 18.8466 36.618Z" fill="white"/>
<path fill-rule="evenodd" clip-rule="evenodd" d="M26.9224 26.1942C26.4449 26.34 25.9806 26.8431 25.8369 27.3706C25.7493 27.6924 25.799 28.2569 25.9303 28.4312C26.1425 28.7128 26.3476 28.7869 26.9031 28.7831C27.9907 28.7755 28.9361 28.3119 29.046 27.7324C29.1362 27.2573 28.7209 26.5989 28.1489 26.3099C27.8538 26.1608 27.2261 26.1016 26.9224 26.1942ZM28.1938 27.1824C28.3615 26.9455 28.2881 26.6895 28.0029 26.5164C27.4597 26.1867 26.6382 26.4595 26.6382 26.9695C26.6382 27.2234 27.0666 27.5004 27.4593 27.5004C27.7206 27.5004 28.0783 27.3455 28.1938 27.1824Z" fill="white"/>
</svg>
