<svg width="22" height="22" viewBox="0 0 22 22" fill="none" xmlns="http://www.w3.org/2000/svg">
<path d="M7.5625 13.75C10.0305 13.75 12.0312 11.7493 12.0312 9.28125C12.0312 6.81323 10.0305 4.8125 7.5625 4.8125C5.09448 4.8125 3.09375 6.81323 3.09375 9.28125C3.09375 11.7493 5.09448 13.75 7.5625 13.75Z" stroke="white" stroke-miterlimit="10"/>
<path d="M13.3557 4.97901C13.9704 4.80583 14.615 4.76638 15.2461 4.86331C15.8773 4.96024 16.4804 5.19131 17.0147 5.54094C17.5491 5.89057 18.0023 6.35065 18.3439 6.89019C18.6855 7.42973 18.9074 8.0362 18.9949 8.66876C19.0823 9.30131 19.0332 9.94527 18.8508 10.5572C18.6685 11.1692 18.3571 11.735 17.9376 12.2165C17.5181 12.698 17.0004 13.084 16.4192 13.3485C15.838 13.6131 15.2068 13.75 14.5683 13.75" stroke="white" stroke-linecap="round" stroke-linejoin="round"/>
<path d="M1.37463 16.9638C2.07256 15.971 2.9991 15.1608 4.07604 14.6014C5.15297 14.0421 6.34867 13.75 7.56221 13.75C8.77574 13.75 9.97146 14.0419 11.0484 14.6012C12.1254 15.1604 13.052 15.9706 13.75 16.9633" stroke="white" stroke-linecap="round" stroke-linejoin="round"/>
<path d="M14.5684 13.75C15.782 13.7491 16.978 14.0407 18.055 14.6C19.1321 15.1594 20.0585 15.97 20.7559 16.9633" stroke="white" stroke-linecap="round" stroke-linejoin="round"/>
</svg>
