<svg width="60" height="60" viewBox="0 0 60 60" fill="none" xmlns="http://www.w3.org/2000/svg">
<path d="M46.875 52.5H13.1232C12.6259 52.5 12.149 52.3025 11.7973 51.9508C11.4457 51.5992 11.2482 51.1223 11.2482 50.625V9.375C11.2482 8.87772 11.4457 8.40081 11.7973 8.04918C12.149 7.69754 12.6259 7.5 13.1232 7.5H35.625L48.75 20.625V50.625C48.75 50.8712 48.7015 51.115 48.6073 51.3425C48.5131 51.57 48.3749 51.7767 48.2008 51.9508C48.0267 52.1249 47.82 52.2631 47.5925 52.3573C47.365 52.4515 47.1212 52.5 46.875 52.5Z" stroke="white" stroke-width="2" stroke-linecap="round" stroke-linejoin="round"/>
<path d="M35.625 7.5V20.625H48.7519" stroke="white" stroke-width="2" stroke-linecap="round" stroke-linejoin="round"/>
<path d="M22.5 31.875H37.5" stroke="white" stroke-width="2" stroke-linecap="round" stroke-linejoin="round"/>
<path d="M22.5 39.375H37.5" stroke="white" stroke-width="2" stroke-linecap="round" stroke-linejoin="round"/>
</svg>
