<svg width="32" height="32" viewBox="0 0 32 32" fill="none" xmlns="http://www.w3.org/2000/svg">
<path d="M14.9992 13.3024L11.7492 7.67324C11.4183 7.09907 11.329 6.41703 11.5007 5.777C11.6725 5.13697 12.0914 4.59133 12.6653 4.25999C13.2392 3.92865 13.9212 3.83872 14.5613 4.00997C15.2015 4.18122 15.7475 4.59963 16.0793 5.17324L21.0793 13.8335" stroke="white" stroke-width="2" stroke-linecap="round" stroke-linejoin="round"/>
<path d="M11.169 16.6684L6.41899 8.44114C6.25451 8.15681 6.14768 7.84285 6.1046 7.5172C6.06152 7.19156 6.08304 6.86062 6.16792 6.54329C6.25281 6.22597 6.39939 5.92849 6.59931 5.66784C6.79922 5.4072 7.04853 5.18851 7.33301 5.02427C7.61748 4.86003 7.93153 4.75346 8.25721 4.71065C8.58289 4.66784 8.91381 4.68964 9.23106 4.77479C9.54832 4.85994 9.84568 5.00677 10.1062 5.2069C10.3666 5.40703 10.5851 5.65653 10.7491 5.94114L14.9991 13.3024" stroke="white" stroke-width="2" stroke-linecap="round" stroke-linejoin="round"/>
<path d="M19.2493 20.6636C18.5862 19.5152 18.4066 18.1504 18.7498 16.8695C19.093 15.5886 19.931 14.4965 21.0794 13.8335L19.8294 11.6684C19.6649 11.3841 19.5581 11.0701 19.515 10.7445C19.4719 10.4189 19.4935 10.0879 19.5783 9.77059C19.6632 9.45327 19.8098 9.15578 20.0097 8.89514C20.2096 8.63449 20.459 8.4158 20.7434 8.25156C21.0279 8.08732 21.3419 7.98075 21.6676 7.93795C21.9933 7.89514 22.3242 7.91693 22.6415 8.00208C22.9587 8.08723 23.2561 8.23407 23.5166 8.4342C23.777 8.63433 23.9955 8.88383 24.1595 9.16844L26.6595 13.4986C27.3165 14.6359 27.743 15.8914 27.9146 17.1936C28.0863 18.4957 27.9997 19.8189 27.6599 21.0876C27.3201 22.3563 26.7338 23.5456 25.9343 24.5877C25.1348 25.6297 24.1378 26.504 23.0004 27.1607C21.863 27.8175 20.6073 28.2437 19.3051 28.415C18.0029 28.5864 16.6797 28.4995 15.4111 28.1595C14.1425 27.8194 12.9533 27.2327 11.9115 26.433C10.8696 25.6333 9.99547 24.6362 9.33903 23.4986L4.58903 15.2713C4.25817 14.6971 4.16881 14.0151 4.34059 13.3751C4.51237 12.735 4.93124 12.1894 5.50513 11.8581C6.07903 11.5267 6.761 11.4368 7.40117 11.608C8.04134 11.7793 8.58733 12.1977 8.91915 12.7713L11.1691 16.6684" stroke="white" stroke-width="2" stroke-linecap="round" stroke-linejoin="round"/>
<path d="M10.1368 30.0003C8.44183 28.8243 7.02895 27.2868 6 25.4988" stroke="white" stroke-width="2" stroke-linecap="round" stroke-linejoin="round"/>
<path d="M22 3.875C23.141 3.87485 24.2618 4.17519 25.2498 4.74581C26.2379 5.31643 27.0582 6.1372 27.6282 7.12554" stroke="white" stroke-width="2" stroke-linecap="round" stroke-linejoin="round"/>
</svg>
