<svg width="20" height="19" viewBox="0 0 20 19" fill="none" xmlns="http://www.w3.org/2000/svg">
<path d="M5.50003 17.5625C5.40974 17.5625 5.32034 17.5447 5.23693 17.5102C5.15352 17.4756 5.07773 17.425 5.01389 17.3611C4.95005 17.2973 4.89941 17.2215 4.86486 17.1381C4.83031 17.0547 4.81253 16.9653 4.81253 16.875L4.81257 13.2059C4.44581 13.3796 4.04108 13.4577 3.63601 13.433C3.23095 13.4083 2.83872 13.2815 2.4958 13.0645C2.15289 12.8475 1.87043 12.5473 1.67471 12.1918C1.47898 11.8363 1.37634 11.4371 1.37634 11.0312C1.37634 10.6254 1.47898 10.2262 1.67471 9.8707C1.87043 9.5152 2.15289 9.21498 2.4958 8.99796C2.83872 8.78094 3.23095 8.65418 3.63601 8.62946C4.04108 8.60474 4.44581 8.68287 4.81257 8.85657L4.81253 5.1875C4.81253 5.09721 4.83031 5.00781 4.86486 4.9244C4.89941 4.84099 4.95005 4.76519 5.01389 4.70135C5.07774 4.63751 5.15353 4.58687 5.23694 4.55232C5.32035 4.51777 5.40975 4.49999 5.50004 4.49999L9.51285 4.50003C9.33915 4.13328 9.26102 3.72854 9.28574 3.32348C9.31046 2.91842 9.43723 2.52619 9.65424 2.18327C9.87126 1.84036 10.1715 1.5579 10.527 1.36217C10.8825 1.16645 11.2817 1.06381 11.6875 1.06381C12.0933 1.06381 12.4926 1.16645 12.8481 1.36217C13.2036 1.5579 13.5038 1.84036 13.7208 2.18327C13.9378 2.52619 14.0646 2.91842 14.0893 3.32348C14.114 3.72854 14.0359 4.13328 13.8622 4.50003L17.875 4.49999C18.0573 4.49999 18.2322 4.57242 18.3611 4.70135C18.4901 4.83028 18.5625 5.00515 18.5625 5.18748L18.5625 8.85657C18.1958 8.68286 17.791 8.60474 17.386 8.62946C16.9809 8.65418 16.5887 8.78094 16.2458 8.99796C15.9029 9.21498 15.6204 9.5152 15.4247 9.8707C15.2289 10.2262 15.1263 10.6254 15.1263 11.0312C15.1263 11.4371 15.2289 11.8363 15.4247 12.1918C15.6204 12.5473 15.9029 12.8475 16.2458 13.0645C16.5887 13.2815 16.9809 13.4083 17.386 13.433C17.791 13.4577 18.1958 13.3796 18.5625 13.2059L18.5625 16.875C18.5625 17.0573 18.4901 17.2322 18.3611 17.3611C18.2322 17.4901 18.0573 17.5625 17.875 17.5625L5.50003 17.5625Z" stroke="white" stroke-linecap="round" stroke-linejoin="round"/>
</svg>
