<svg width="22" height="22" viewBox="0 0 22 22" fill="none" xmlns="http://www.w3.org/2000/svg">
<path d="M11 19.25C15.5563 19.25 19.25 15.5563 19.25 11C19.25 6.44365 15.5563 2.75 11 2.75C6.44365 2.75 2.75 6.44365 2.75 11C2.75 15.5563 6.44365 19.25 11 19.25Z" stroke="white" stroke-linecap="round" stroke-linejoin="round"/>
<path d="M11 16.5C11.5695 16.5 12.0312 16.0383 12.0312 15.4688C12.0312 14.8992 11.5695 14.4375 11 14.4375C10.4305 14.4375 9.96875 14.8992 9.96875 15.4688C9.96875 16.0383 10.4305 16.5 11 16.5Z" fill="white"/>
<path d="M11 12.3754V11.6879C11.4759 11.6879 11.9411 11.5467 12.3368 11.2823C12.7325 11.0179 13.041 10.6421 13.2231 10.2024C13.4052 9.76276 13.4529 9.27895 13.36 8.81218C13.2672 8.34541 13.038 7.91666 12.7015 7.58014C12.365 7.24362 11.9362 7.01445 11.4694 6.9216C11.0027 6.82876 10.5189 6.87641 10.0792 7.05853C9.63948 7.24066 9.26368 7.54907 8.99928 7.94478C8.73487 8.34048 8.59375 8.80571 8.59375 9.28162" stroke="white" stroke-linecap="round" stroke-linejoin="round"/>
</svg>
