<svg width="60" height="60" viewBox="0 0 60 60" fill="none" xmlns="http://www.w3.org/2000/svg">
<path d="M19.6875 54.375C21.1793 54.375 22.6101 53.7824 23.665 52.7275C24.7199 51.6726 25.3125 50.2418 25.3125 48.75V37.5" stroke="white" stroke-width="2" stroke-linecap="round" stroke-linejoin="round"/>
<path d="M40.3125 54.375C38.8207 54.375 37.3899 53.7824 36.335 52.7275C35.2801 51.6726 34.6875 50.2418 34.6875 48.75V37.5" stroke="white" stroke-width="2" stroke-linecap="round" stroke-linejoin="round"/>
<path d="M35.625 37.5H39.375C40.8668 37.5 42.2976 38.0926 43.3525 39.1475C44.4074 40.2024 45 41.6332 45 43.125V45C45 46.4918 45.5926 47.9226 46.6475 48.9775C47.7024 50.0324 49.1332 50.625 50.625 50.625" stroke="white" stroke-width="2" stroke-linecap="round" stroke-linejoin="round"/>
<path d="M24.375 37.5H20.625C19.1332 37.5 17.7024 38.0926 16.6475 39.1475C15.5926 40.2024 15 41.6332 15 43.125V45C15 46.4918 14.4074 47.9226 13.3525 48.9775C12.2976 50.0324 10.8668 50.625 9.375 50.625" stroke="white" stroke-width="2" stroke-linecap="round" stroke-linejoin="round"/>
<path d="M15.1199 17.9774C14.4643 16.281 14.1974 14.4591 14.3388 12.6459C14.4803 10.8326 15.0266 9.07421 15.9375 7.5C17.9843 7.49884 19.9984 8.01359 21.7937 8.99669C23.589 9.97979 25.1075 11.3995 26.2089 13.1247V13.125H33.7911V13.1247C34.8925 11.3995 36.4111 9.97979 38.2063 8.99669C40.0016 8.01359 42.0157 7.49883 44.0625 7.5C44.9734 9.07421 45.5197 10.8326 45.6612 12.6459C45.8027 14.4591 45.5358 16.281 44.8801 17.9774V17.9774C46.1825 19.8563 46.8787 22.0888 46.875 24.375V26.25C46.875 29.2337 45.6897 32.0952 43.58 34.205C41.4702 36.3147 38.6087 37.5 35.625 37.5H24.375C21.3913 37.5 18.5298 36.3147 16.4201 34.205C14.3103 32.0952 13.125 29.2337 13.125 26.25V24.375C13.1213 22.0888 13.8175 19.8563 15.1199 17.9774L15.1199 17.9774Z" stroke="white" stroke-width="2" stroke-linecap="round" stroke-linejoin="round"/>
</svg>
