<svg width="22" height="22" viewBox="0 0 22 22" fill="none" xmlns="http://www.w3.org/2000/svg">
<path d="M11 17.82C12.3289 17.82 13.4062 16.7857 13.4062 15.51C13.4062 14.2342 12.3289 13.2 11 13.2C9.67106 13.2 8.59375 14.2342 8.59375 15.51C8.59375 16.7857 9.67106 17.82 11 17.82Z" stroke="white" stroke-linecap="round" stroke-linejoin="round"/>
<path d="M16.1562 7.9198C17.4852 7.9198 18.5625 6.88558 18.5625 5.6098C18.5625 4.33403 17.4852 3.2998 16.1562 3.2998C14.8273 3.2998 13.75 4.33403 13.75 5.6098C13.75 6.88558 14.8273 7.9198 16.1562 7.9198Z" stroke="white" stroke-linecap="round" stroke-linejoin="round"/>
<path d="M5.84375 7.9198C7.17269 7.9198 8.25 6.88558 8.25 5.6098C8.25 4.33403 7.17269 3.2998 5.84375 3.2998C4.51481 3.2998 3.4375 4.33403 3.4375 5.6098C3.4375 6.88558 4.51481 7.9198 5.84375 7.9198Z" stroke="white" stroke-linecap="round" stroke-linejoin="round"/>
<path d="M5.84375 7.9198V8.57996C5.84375 8.83999 5.8971 9.09746 6.00075 9.33769C6.10441 9.57791 6.25633 9.79619 6.44786 9.98005C6.63938 10.1639 6.86676 10.3098 7.11699 10.4093C7.36723 10.5088 7.63544 10.56 7.90629 10.56L14.0938 10.5598C14.6408 10.5598 15.1654 10.3512 15.5522 9.9799C15.939 9.60858 16.1563 9.10497 16.1562 8.57984V7.9198" stroke="white" stroke-linecap="round" stroke-linejoin="round"/>
<path d="M11.0002 10.5599L11 13.1999" stroke="white" stroke-linecap="round" stroke-linejoin="round"/>
</svg>
