<svg width="22" height="22" viewBox="0 0 22 22" fill="none" xmlns="http://www.w3.org/2000/svg">
<path d="M3.4375 9.16667V4.125C3.4375 3.94266 3.50993 3.7678 3.63886 3.63886C3.7678 3.50993 3.94266 3.4375 4.125 3.4375H17.875C18.0573 3.4375 18.2322 3.50993 18.3611 3.63886C18.4901 3.7678 18.5625 3.94266 18.5625 4.125V9.16667C18.5625 16.3867 12.4346 18.7788 11.2111 19.1845C11.0743 19.2315 10.9257 19.2315 10.7889 19.1845C9.56536 18.7788 3.4375 16.3867 3.4375 9.16667Z" stroke="white" stroke-linecap="round" stroke-linejoin="round"/>
<path d="M11 16C11.5523 16 12 15.5523 12 15C12 14.4477 11.5523 14 11 14C10.4477 14 10 14.4477 10 15C10 15.5523 10.4477 16 11 16Z" fill="white"/>
<path d="M11 12V11.375C11.3956 11.375 11.7822 11.2467 12.1111 11.0063C12.44 10.766 12.6964 10.4243 12.8478 10.0246C12.9991 9.62491 13.0387 9.18507 12.9616 8.76074C12.8844 8.33641 12.6939 7.94663 12.4142 7.64071C12.1345 7.33478 11.7781 7.12644 11.3902 7.04203C11.0022 6.95763 10.6001 7.00095 10.2346 7.16651C9.86918 7.33208 9.55682 7.61246 9.33706 7.97219C9.1173 8.33192 9 8.75485 9 9.1875" stroke="white" stroke-linecap="round" stroke-linejoin="round"/>
</svg>
