<svg width="22" height="22" viewBox="0 0 22 22" fill="none" xmlns="http://www.w3.org/2000/svg">
<path d="M6.1875 8.59375H2.75C2.3703 8.59375 2.0625 8.90155 2.0625 9.28125V12.7188C2.0625 13.0984 2.3703 13.4062 2.75 13.4062H6.1875C6.5672 13.4062 6.875 13.0984 6.875 12.7188V9.28125C6.875 8.90155 6.5672 8.59375 6.1875 8.59375Z" stroke="white" stroke-linecap="round" stroke-linejoin="round"/>
<path d="M18.5625 3.4375H14.4375C14.0578 3.4375 13.75 3.7453 13.75 4.125V8.25C13.75 8.6297 14.0578 8.9375 14.4375 8.9375H18.5625C18.9422 8.9375 19.25 8.6297 19.25 8.25V4.125C19.25 3.7453 18.9422 3.4375 18.5625 3.4375Z" stroke="white" stroke-linecap="round" stroke-linejoin="round"/>
<path d="M18.5625 13.0625H14.4375C14.0578 13.0625 13.75 13.3703 13.75 13.75V17.875C13.75 18.2547 14.0578 18.5625 14.4375 18.5625H18.5625C18.9422 18.5625 19.25 18.2547 19.25 17.875V13.75C19.25 13.3703 18.9422 13.0625 18.5625 13.0625Z" stroke="white" stroke-linecap="round" stroke-linejoin="round"/>
<path d="M6.875 11H10.3125" stroke="white" stroke-linecap="round" stroke-linejoin="round"/>
<path d="M13.75 15.8125H12.375C11.828 15.8125 11.3034 15.5952 10.9166 15.2084C10.5298 14.8216 10.3125 14.297 10.3125 13.75V8.25C10.3125 7.70299 10.5298 7.17839 10.9166 6.79159C11.3034 6.4048 11.828 6.1875 12.375 6.1875H13.75" stroke="white" stroke-linecap="round" stroke-linejoin="round"/>
</svg>
