<svg width="22" height="23" viewBox="0 0 22 23" fill="none" xmlns="http://www.w3.org/2000/svg">
<path d="M6.1875 9.17004H2.75C2.3703 9.17004 2.0625 9.46554 2.0625 9.83004V13.13C2.0625 13.4946 2.3703 13.79 2.75 13.79H6.1875C6.5672 13.79 6.875 13.4946 6.875 13.13V9.83004C6.875 9.46554 6.5672 9.17004 6.1875 9.17004Z" stroke="white" stroke-linecap="round" stroke-linejoin="round"/>
<path d="M18.5625 4.22009H14.4375C14.0578 4.22009 13.75 4.51558 13.75 4.88009V8.84009C13.75 9.2046 14.0578 9.50009 14.4375 9.50009H18.5625C18.9422 9.50009 19.25 9.2046 19.25 8.84009V4.88009C19.25 4.51558 18.9422 4.22009 18.5625 4.22009Z" stroke="white" stroke-linecap="round" stroke-linejoin="round"/>
<path d="M18.5625 13.4601H14.4375C14.0578 13.4601 13.75 13.7556 13.75 14.1201V18.0801C13.75 18.4446 14.0578 18.7401 14.4375 18.7401H18.5625C18.9422 18.7401 19.25 18.4446 19.25 18.0801V14.1201C19.25 13.7556 18.9422 13.4601 18.5625 13.4601Z" stroke="white" stroke-linecap="round" stroke-linejoin="round"/>
<path d="M6.875 11.4801H10.3125" stroke="white" stroke-linecap="round" stroke-linejoin="round"/>
<path d="M13.75 16.1H12.375C11.828 16.1 11.3034 15.8914 10.9166 15.5201C10.5298 15.1487 10.3125 14.6451 10.3125 14.12V8.83999C10.3125 8.31486 10.5298 7.81124 10.9166 7.43991C11.3034 7.06859 11.828 6.85999 12.375 6.85999H13.75" stroke="white" stroke-linecap="round" stroke-linejoin="round"/>
</svg>
