<svg width="22" height="22" viewBox="0 0 22 22" fill="none" xmlns="http://www.w3.org/2000/svg">
<path d="M8.00659 10.1337C7.47662 8.86467 7.41932 7.45888 7.84438 6.15396C8.26945 4.84905 9.1508 3.72505 10.3395 2.97195C11.5281 2.21886 12.9512 1.88286 14.3682 2.02075C15.7851 2.15864 17.109 2.76197 18.116 3.72874C19.1231 4.69552 19.7516 5.96645 19.8952 7.32671C20.0388 8.68697 19.6888 10.0531 18.9043 11.1942C18.1199 12.3354 16.949 13.1815 15.5897 13.5895C14.2304 13.9976 12.7661 13.9426 11.4442 13.4338L11.4442 13.4337L10.3126 14.52H8.25012V16.5H6.18762V18.48H2.75012V15.18L8.00675 10.1336L8.00659 10.1337Z" stroke="white" stroke-linecap="round" stroke-linejoin="round"/>
<path opacity="0.5" d="M15.4688 6.6C15.6586 6.6 15.8125 6.45226 15.8125 6.27C15.8125 6.08775 15.6586 5.94 15.4688 5.94C15.2789 5.94 15.125 6.08775 15.125 6.27C15.125 6.45226 15.2789 6.6 15.4688 6.6Z" stroke="white" stroke-linecap="round" stroke-linejoin="round"/>
<path d="M15.4688 7.26003C16.0383 7.26003 16.5 6.81679 16.5 6.27003C16.5 5.72327 16.0383 5.28003 15.4688 5.28003C14.8992 5.28003 14.4375 5.72327 14.4375 6.27003C14.4375 6.81679 14.8992 7.26003 15.4688 7.26003Z" fill="white"/>
</svg>
