<svg width="22" height="22" viewBox="0 0 22 22" fill="none" xmlns="http://www.w3.org/2000/svg">
<path d="M19.25 15.2386V6.76147C19.25 6.63949 19.2175 6.51969 19.156 6.41439C19.0944 6.30909 19.0059 6.22207 18.8996 6.16227L11.3371 1.90836C11.2341 1.85048 11.1181 1.82007 11 1.82007C10.8819 1.82007 10.7659 1.85048 10.6629 1.90836L3.10045 6.16227C2.99412 6.22207 2.90563 6.30909 2.84404 6.41439C2.78246 6.51969 2.75 6.63949 2.75 6.76147V15.2386C2.75 15.3605 2.78246 15.4803 2.84404 15.5856C2.90563 15.6909 2.99412 15.778 3.10045 15.8378L10.6629 20.0917C10.7659 20.1496 10.8819 20.18 11 20.18C11.1181 20.18 11.2341 20.1496 11.3371 20.0917L18.8996 15.8378C19.0059 15.778 19.0944 15.6909 19.156 15.5856C19.2175 15.4803 19.25 15.3605 19.25 15.2386Z" stroke="white" stroke-linecap="round" stroke-linejoin="round"/>
<path d="M19.1552 6.41313L11.0816 11L2.84521 6.41235" stroke="white" stroke-linecap="round" stroke-linejoin="round"/>
<path d="M11.0817 11L11.001 20.18" stroke="white" stroke-linecap="round" stroke-linejoin="round"/>
</svg>
