<svg width="60" height="60" viewBox="0 0 60 60" fill="none" xmlns="http://www.w3.org/2000/svg">
<path d="M30 60C46.5685 60 60 46.5685 60 30C60 13.4315 46.5685 0 30 0C13.4315 0 0 13.4315 0 30C0 46.5685 13.4315 60 30 60Z" fill="white"/>
<path d="M20.625 26.25H16.875C15.8395 26.25 15 27.0896 15 28.125V43.125C15 44.1604 15.8395 45 16.875 45H20.625C21.6604 45 22.5 44.1604 22.5 43.125V28.125C22.5 27.0896 21.6604 26.25 20.625 26.25Z" fill="#00D6AF"/>
<path d="M31.875 30H28.125C27.0896 30 26.25 30.8396 26.25 31.875V43.125C26.25 44.1604 27.0896 45 28.125 45H31.875C32.9104 45 33.75 44.1604 33.75 43.125V31.875C33.75 30.8396 32.9104 30 31.875 30Z" fill="#3C67D6"/>
<path d="M37.5 16.875C37.5 15.8395 38.3396 15 39.375 15H43.125C44.1604 15 45 15.8395 45 16.875V43.125C45 44.1604 44.1604 45 43.125 45H39.375C38.3396 45 37.5 44.1604 37.5 43.125V16.875Z" fill="#3C67D6"/>
</svg>
