<svg width="60" height="60" viewBox="0 0 60 60" fill="none" xmlns="http://www.w3.org/2000/svg">
<path d="M49.0306 11.1179C44.4702 7.41207 39.0331 5.29443 33.4204 5.29443C27.2817 5.29443 21.3181 7.58853 16.7578 12.0003C12.1975 16.412 9.56662 22.059 9.21582 28.4118V29.1178H12.0222V28.5884C12.7237 17.2944 22.1951 8.47088 33.4204 8.47088C38.5068 8.47088 43.2426 10.2356 47.1012 13.412L47.2767 13.5885L49.3813 11.4709L49.0306 11.1179Z" fill="white"/>
<path d="M46.2245 39.1767C43.2428 43.2354 38.5069 45.706 33.4206 45.706C24.6508 45.706 17.6349 38.6472 17.6349 29.8236C17.6349 21.1768 24.6508 14.118 33.4206 14.118C38.5069 14.118 43.2428 16.5885 46.2245 20.6474L46.3998 21.0003L48.5044 18.8826L48.3292 18.7062C44.8212 13.9415 39.2085 11.2945 33.4206 11.2945C23.0722 11.118 14.8286 19.5884 14.8286 29.8236C14.8286 40.2354 23.2476 48.5295 33.4206 48.5295C39.2085 48.5295 44.8212 45.706 48.3292 41.1178L48.5044 40.9412L46.3998 38.8237L46.2245 39.1767Z" fill="white"/>
<path d="M52.363 14.6472C51.8369 14.1178 51.4861 13.4119 50.9599 12.8825L50.7844 12.7061L48.6797 14.8237L48.8552 15.0001C49.3812 15.5296 49.9075 16.059 50.2583 16.7649L50.4336 17.1178L52.5385 15.0001L52.363 14.6472Z" fill="white"/>
<path d="M47.1008 46.4111L46.9255 46.5877C43.0667 49.7641 38.3311 51.5288 33.2447 51.5288C22.0193 51.5288 12.548 42.7053 11.8464 31.4111V30.7053H9.04004V31.4111C9.39082 37.5876 12.1972 43.4111 16.582 47.823C21.1423 52.0581 27.1058 54.5287 33.2447 54.5287C39.0327 54.5287 44.4698 52.411 48.8549 48.7051L49.0302 48.5288L47.1008 46.4111Z" fill="white"/>
<path d="M50.4336 42.8821L50.2583 43.235C49.9075 43.7645 49.3812 44.2939 48.8552 44.9997L48.6797 45.1761L50.7844 47.2938L50.9599 47.1174C51.4861 46.5879 52.0122 45.8821 52.363 45.3526L52.5385 45.1761L50.4336 42.8821Z" fill="white"/>
<path d="M54.1173 47.1174C49.0309 53.2938 41.4889 56.9996 33.4207 56.9996C18.5121 56.9996 6.58524 44.8231 6.58524 29.8234C6.58524 14.8234 18.5121 2.82352 33.4207 2.82352C41.4889 2.82352 49.0309 6.3529 54.1173 12.7058L54.2928 13.0587L56.3975 10.9411L56.2222 10.7646C50.6095 3.88233 42.1904 0 33.4207 0C16.9336 0 3.60352 13.4117 3.60352 29.9997C3.60352 46.5879 16.9336 59.9997 33.4207 59.9997C42.1904 59.9997 50.6095 56.1173 56.2222 49.235L56.3975 49.0585L54.2928 46.9408L54.1173 47.1174Z" fill="white"/>
</svg>
