<svg width="60" height="60" viewBox="0 0 60 60" fill="none" xmlns="http://www.w3.org/2000/svg">
<path d="M30 60C46.5685 60 60 46.5685 60 30C60 13.4315 46.5685 0 30 0C13.4315 0 0 13.4315 0 30C0 46.5685 13.4315 60 30 60Z" fill="white"/>
<path d="M38.0648 29.8239C38.0634 28.9898 37.8435 28.1706 37.4268 27.4481C37.0102 26.7255 36.4115 26.1247 35.6903 25.7056L34.4057 24.959L30.0092 27.4958L33.4782 29.5132C33.5326 29.5446 33.5776 29.5899 33.6086 29.6445C33.6395 29.6992 33.6554 29.7611 33.6544 29.8239C33.6526 29.8836 33.6354 29.9419 33.6046 29.9931C33.5737 30.0442 33.5302 30.0866 33.4782 30.1161L18.9298 38.5381C18.8763 38.5689 18.8154 38.5849 18.7536 38.5845C18.7069 38.5851 18.6606 38.5764 18.6173 38.559C18.574 38.5415 18.5346 38.5157 18.5014 38.4829C18.4681 38.4501 18.4418 38.411 18.4238 38.368C18.4058 38.3249 18.3965 38.2787 18.3965 38.232V21.4158C18.3965 21.3532 18.4127 21.2916 18.4436 21.2371C18.4745 21.1827 18.519 21.1372 18.5727 21.105C18.6286 21.0757 18.6905 21.0598 18.7536 21.0587C18.8158 21.0598 18.8766 21.0774 18.9298 21.1097L25.5941 24.959L29.9906 22.4222L21.1234 17.3207C20.4026 16.9061 19.5856 16.6879 18.754 16.6878C17.9224 16.6877 17.1053 16.9058 16.3844 17.3203C15.6635 17.7347 15.0638 18.331 14.6454 19.0497C14.227 19.7684 14.0045 20.5842 14 21.4158V38.232C14.0008 39.0658 14.2209 39.8848 14.6382 40.6067C15.0555 41.3286 15.6554 41.928 16.3776 42.3447C17.0998 42.7615 17.9189 42.981 18.7527 42.9812C19.5865 42.9813 20.4057 42.7621 21.1281 42.3456L35.6903 33.9375C36.4117 33.5199 37.0108 32.9201 37.4275 32.1982C37.8443 31.4762 38.064 30.6575 38.0648 29.8239V29.8239Z" fill="url(#paint0_linear_1:308)"/>
<path d="M43.6163 17.3021C42.8933 16.8858 42.0737 16.6667 41.2395 16.6667C40.4052 16.6667 39.5856 16.8858 38.8627 17.3021L24.3004 25.7056C23.5782 26.1229 22.9784 26.723 22.5615 27.4454C22.1445 28.1679 21.925 28.9874 21.925 29.8215C21.925 30.6557 22.1445 31.4752 22.5615 32.1976C22.9784 32.9201 23.5782 33.5202 24.3004 33.9375L25.5943 34.6888L29.9908 32.152L26.5219 30.116C26.4678 30.0854 26.423 30.0408 26.392 29.987C26.361 29.9332 26.345 29.8721 26.3456 29.8099C26.3471 29.7495 26.3641 29.6905 26.3949 29.6385C26.4258 29.5865 26.4695 29.5433 26.5219 29.5131L41.0609 21.105C41.1153 21.0762 41.1756 21.0603 41.2371 21.0586C41.3009 21.0592 41.3634 21.0768 41.418 21.1097C41.472 21.1403 41.5169 21.1848 41.5479 21.2387C41.5789 21.2925 41.5949 21.3536 41.5942 21.4157V38.232C41.5942 38.2787 41.585 38.3249 41.567 38.3679C41.549 38.411 41.5226 38.4501 41.4894 38.4829C41.4562 38.5156 41.4168 38.5415 41.3735 38.559C41.3302 38.5764 41.2838 38.5851 41.2371 38.5844C41.1753 38.5849 41.1145 38.5689 41.0609 38.5381L34.4059 34.6888L30.0094 37.2256L38.8766 42.327C39.5974 42.7416 40.4145 42.9599 41.246 42.9599C42.0776 42.96 42.8947 42.7419 43.6156 42.3275C44.3366 41.913 44.9362 41.3167 45.3546 40.5981C45.773 39.8794 45.9955 39.0635 46 38.232V21.4157C45.9983 20.5813 45.7771 19.7619 45.3587 19.0399C44.9403 18.3178 44.3394 17.7186 43.6163 17.3021V17.3021Z" fill="url(#paint1_linear_1:308)"/>
<defs>
<linearGradient id="paint0_linear_1:308" x1="26.0348" y1="16.6668" x2="26.0348" y2="42.9809" gradientUnits="userSpaceOnUse">
<stop stop-color="#FF1DD9"/>
<stop offset="1" stop-color="#FF4284"/>
</linearGradient>
<linearGradient id="paint1_linear_1:308" x1="33.9606" y1="16.6667" x2="33.9606" y2="42.981" gradientUnits="userSpaceOnUse">
<stop stop-color="#0150F7"/>
<stop offset="1" stop-color="#4BAEFF"/>
</linearGradient>
</defs>
</svg>
