<svg width="113" height="27" viewBox="0 0 113 27" fill="none" xmlns="http://www.w3.org/2000/svg">
<path d="M10.0039 0.283508C10.3113 0.107832 10.6887 0.107832 10.9961 0.283508L20.4961 5.71208C20.8077 5.89012 21 6.22147 21 6.58032V8.61784C21 8.97423 20.8103 9.30368 20.5021 9.48263L12.0021 14.4181C11.3355 14.8052 10.5 14.3242 10.5 13.5533V12.833C10.5 12.4711 10.6956 12.1374 11.0114 11.9606L19.0622 7.45161L11.0087 2.52684C10.6953 2.33522 10.3021 2.33082 9.9845 2.51538L2.41321 6.91553C2.1052 7.09453 1.91568 7.42388 1.91568 7.78012V15.8328C1.91568 16.189 2.1052 16.5184 2.41321 16.6974L10.0017 21.1075C10.3101 21.2868 10.6907 21.2882 11.0004 21.1112L19.5039 16.252C20.1705 15.8711 21 16.3525 21 17.1203V17.4197C21 17.7785 20.8077 18.1099 20.4961 18.2879L10.9961 23.7165C10.6887 23.8922 10.3113 23.8922 10.0039 23.7165L0.503861 18.2879C0.192286 18.1099 0 17.7785 0 17.4197V6.58032C0 6.22147 0.192286 5.89012 0.503861 5.71208L10.0039 0.283508Z" fill="white"/>
<path d="M30.44 19V6.4H39.26V7.93H32.06V11.89H37.91V13.42H32.06V17.47H39.26V19H30.44ZM40.3463 10H41.8763L43.9463 17.65H45.4763L47.5463 10H49.0763L46.5563 19H42.8663L40.3463 10ZM51.4774 17.848C50.6014 16.96 50.1634 15.844 50.1634 14.5C50.1634 13.156 50.6014 12.04 51.4774 11.152C52.3534 10.264 53.4454 9.82 54.7534 9.82C56.0614 9.82 57.1534 10.258 58.0294 11.134C58.9054 12.01 59.3434 13.102 59.3434 14.41V14.95H51.6034C51.6994 15.79 52.0414 16.48 52.6294 17.02C53.2174 17.56 53.9254 17.83 54.7534 17.83C55.6414 17.83 56.4034 17.56 57.0394 17.02C57.3274 16.78 57.5554 16.51 57.7234 16.21H59.1634C58.9474 16.774 58.6414 17.272 58.2454 17.704C57.3094 18.688 56.1454 19.18 54.7534 19.18C53.4454 19.18 52.3534 18.736 51.4774 17.848ZM51.6394 13.69H57.8134C57.7054 12.982 57.3754 12.388 56.8234 11.908C56.2714 11.416 55.5814 11.17 54.7534 11.17C53.9254 11.17 53.2294 11.416 52.6654 11.908C52.1014 12.388 51.7594 12.982 51.6394 13.69ZM61.3205 19V10H62.7605V11.44H62.7785C62.9465 11.14 63.1505 10.888 63.3905 10.684C63.9785 10.168 64.6985 9.91 65.5505 9.91H66.6305V11.35H65.5505C64.7345 11.35 64.0625 11.614 63.5345 12.142C63.0185 12.658 62.7605 13.324 62.7605 14.14V19H61.3205ZM67.5284 16.21H69.0584C69.1904 16.534 69.3644 16.804 69.5804 17.02C70.1204 17.56 70.8164 17.83 71.6684 17.83C72.4364 17.83 73.0004 17.704 73.3604 17.452C73.7324 17.2 73.9184 16.876 73.9184 16.48C73.9184 16.264 73.8404 16.078 73.6844 15.922C73.5404 15.766 73.3004 15.628 72.9644 15.508C72.6284 15.388 72.3284 15.298 72.0644 15.238C71.8124 15.166 71.4404 15.082 70.9484 14.986C68.9684 14.578 67.9784 13.696 67.9784 12.34C67.9784 11.632 68.2784 11.038 68.8784 10.558C69.4784 10.066 70.3184 9.82 71.3984 9.82C72.7424 9.82 73.8044 10.27 74.5844 11.17C74.8964 11.578 75.1244 12.028 75.2684 12.52H73.7384C73.6304 12.28 73.4744 12.058 73.2704 11.854C72.8144 11.398 72.1904 11.17 71.3984 11.17C70.7624 11.17 70.2704 11.29 69.9224 11.53C69.5864 11.77 69.4184 12.04 69.4184 12.34C69.4184 12.556 69.4904 12.742 69.6344 12.898C69.7904 13.054 70.0364 13.192 70.3724 13.312C70.7084 13.432 71.0024 13.528 71.2544 13.6C71.5184 13.66 71.8964 13.738 72.3884 13.834C74.3684 14.242 75.3584 15.124 75.3584 16.48C75.3584 17.248 75.0344 17.89 74.3864 18.406C73.7384 18.922 72.8324 19.18 71.6684 19.18C70.2044 19.18 69.0764 18.688 68.2844 17.704C67.9484 17.272 67.6964 16.774 67.5284 16.21ZM78.0902 17.848C77.2262 16.96 76.7942 15.844 76.7942 14.5C76.7942 13.156 77.2262 12.04 78.0902 11.152C78.9542 10.264 80.0222 9.82 81.2942 9.82C82.7702 9.82 83.9402 10.348 84.8042 11.404C85.1762 11.872 85.4462 12.394 85.6142 12.97H84.1742C84.0422 12.646 83.8442 12.346 83.5802 12.07C83.0042 11.47 82.2422 11.17 81.2942 11.17C80.4182 11.17 79.6862 11.482 79.0982 12.106C78.5222 12.73 78.2342 13.528 78.2342 14.5C78.2342 15.472 78.5342 16.27 79.1342 16.894C79.7342 17.518 80.4542 17.83 81.2942 17.83C82.2782 17.83 83.0642 17.5 83.6522 16.84C83.9162 16.564 84.1202 16.234 84.2642 15.85H85.7042C85.5482 16.462 85.2722 17.02 84.8762 17.524C83.9642 18.628 82.7702 19.18 81.2942 19.18C80.0222 19.18 78.9542 18.736 78.0902 17.848ZM88.232 17.848C87.392 16.948 86.972 15.832 86.972 14.5C86.972 13.168 87.392 12.058 88.232 11.17C89.072 10.27 90.092 9.82 91.292 9.82C92.048 9.82 92.684 9.964 93.2 10.252C93.728 10.54 94.112 10.852 94.352 11.188L94.514 11.458H94.532V10H95.972V19H94.532V17.56H94.514L94.352 17.812C94.136 18.136 93.764 18.448 93.236 18.748C92.708 19.036 92.06 19.18 91.292 19.18C90.092 19.18 89.072 18.736 88.232 17.848ZM89.276 12.106C88.7 12.73 88.412 13.528 88.412 14.5C88.412 15.472 88.7 16.27 89.276 16.894C89.864 17.518 90.596 17.83 91.472 17.83C92.348 17.83 93.074 17.518 93.65 16.894C94.238 16.27 94.532 15.472 94.532 14.5C94.532 13.528 94.238 12.73 93.65 12.106C93.074 11.482 92.348 11.17 91.472 11.17C90.596 11.17 89.864 11.482 89.276 12.106ZM98.4983 19V6.4H99.9383V17.65H102.008V19H98.4983ZM104.229 17.848C103.353 16.96 102.915 15.844 102.915 14.5C102.915 13.156 103.353 12.04 104.229 11.152C105.105 10.264 106.197 9.82 107.505 9.82C108.813 9.82 109.905 10.258 110.781 11.134C111.657 12.01 112.095 13.102 112.095 14.41V14.95H104.355C104.451 15.79 104.793 16.48 105.381 17.02C105.969 17.56 106.677 17.83 107.505 17.83C108.393 17.83 109.155 17.56 109.791 17.02C110.079 16.78 110.307 16.51 110.475 16.21H111.915C111.699 16.774 111.393 17.272 110.997 17.704C110.061 18.688 108.897 19.18 107.505 19.18C106.197 19.18 105.105 18.736 104.229 17.848ZM104.391 13.69H110.565C110.457 12.982 110.127 12.388 109.575 11.908C109.023 11.416 108.333 11.17 107.505 11.17C106.677 11.17 105.981 11.416 105.417 11.908C104.853 12.388 104.511 12.982 104.391 13.69Z" fill="white"/>
</svg>
