<svg width="115" height="34" viewBox="0 0 115 34" fill="none" xmlns="http://www.w3.org/2000/svg">
<rect opacity="0.1" width="34" height="34" rx="6" fill="#13173E"/>
<path d="M14.1344 7.04082C13.7433 6.93603 13.3204 7.03544 12.9858 7.31081L7.3818 11.9223C7.01123 12.2272 6.89244 12.7761 7.1052 13.2002L13.5802 26.1086C13.931 26.8079 14.7508 27.0276 15.4042 26.5974L27.4659 18.6559C27.8623 18.3949 28.0338 17.8602 27.8654 17.4108L25.3179 10.6152C25.1658 10.2094 24.8492 9.91186 24.4582 9.80707L14.1344 7.04082Z" stroke="white" stroke-width="1.75"/>
<path d="M39.44 26V13.4H47.99V14.93H41.06V19.25H46.55V20.78H41.06V26H39.44ZM49.3498 26V17H50.7898V18.44H50.8078C50.9758 18.14 51.1798 17.888 51.4198 17.684C52.0078 17.168 52.7278 16.91 53.5798 16.91H54.6598V18.35H53.5798C52.7638 18.35 52.0918 18.614 51.5638 19.142C51.0478 19.658 50.7898 20.324 50.7898 21.14V26H49.3498ZM56.9617 24.848C56.0857 23.96 55.6477 22.844 55.6477 21.5C55.6477 20.156 56.0857 19.04 56.9617 18.152C57.8377 17.264 58.9297 16.82 60.2377 16.82C61.5457 16.82 62.6377 17.258 63.5137 18.134C64.3897 19.01 64.8277 20.102 64.8277 21.41V21.95H57.0877C57.1837 22.79 57.5257 23.48 58.1137 24.02C58.7017 24.56 59.4097 24.83 60.2377 24.83C61.1257 24.83 61.8877 24.56 62.5237 24.02C62.8117 23.78 63.0397 23.51 63.2077 23.21H64.6477C64.4317 23.774 64.1257 24.272 63.7297 24.704C62.7937 25.688 61.6297 26.18 60.2377 26.18C58.9297 26.18 57.8377 25.736 56.9617 24.848ZM57.1237 20.69H63.2977C63.1897 19.982 62.8597 19.388 62.3077 18.908C61.7557 18.416 61.0657 18.17 60.2377 18.17C59.4097 18.17 58.7137 18.416 58.1497 18.908C57.5857 19.388 57.2437 19.982 57.1237 20.69ZM67.5789 24.848C66.7029 23.96 66.2649 22.844 66.2649 21.5C66.2649 20.156 66.7029 19.04 67.5789 18.152C68.4549 17.264 69.5469 16.82 70.8549 16.82C72.1629 16.82 73.2549 17.258 74.1309 18.134C75.0069 19.01 75.4449 20.102 75.4449 21.41V21.95H67.7049C67.8009 22.79 68.1429 23.48 68.7309 24.02C69.3189 24.56 70.0269 24.83 70.8549 24.83C71.7429 24.83 72.5049 24.56 73.1409 24.02C73.4289 23.78 73.6569 23.51 73.8249 23.21H75.2649C75.0489 23.774 74.7429 24.272 74.3469 24.704C73.4109 25.688 72.2469 26.18 70.8549 26.18C69.5469 26.18 68.4549 25.736 67.5789 24.848ZM67.7409 20.69H73.9149C73.8069 19.982 73.4769 19.388 72.9249 18.908C72.3729 18.416 71.6829 18.17 70.8549 18.17C70.0269 18.17 69.3309 18.416 68.7669 18.908C68.2029 19.388 67.8609 19.982 67.7409 20.69ZM76.6121 18.35V17H77.7821V15.02H79.2221V17H82.1021V18.35H79.2221V24.65H82.1921V26H77.7821V18.35H76.6121ZM84.7883 24.848C83.9003 23.96 83.4563 22.844 83.4563 21.5C83.4563 20.156 83.9003 19.04 84.7883 18.152C85.6763 17.264 86.7923 16.82 88.1363 16.82C89.4803 16.82 90.5963 17.264 91.4843 18.152C92.3723 19.04 92.8163 20.156 92.8163 21.5C92.8163 22.844 92.3723 23.96 91.4843 24.848C90.5963 25.736 89.4803 26.18 88.1363 26.18C86.7923 26.18 85.6763 25.736 84.7883 24.848ZM85.8143 19.106C85.2023 19.73 84.8963 20.528 84.8963 21.5C84.8963 22.472 85.2023 23.27 85.8143 23.894C86.4263 24.518 87.2003 24.83 88.1363 24.83C89.0723 24.83 89.8463 24.518 90.4583 23.894C91.0703 23.27 91.3763 22.472 91.3763 21.5C91.3763 20.528 91.0703 19.73 90.4583 19.106C89.8463 18.482 89.0723 18.17 88.1363 18.17C87.2003 18.17 86.4263 18.482 85.8143 19.106ZM94.7893 26V17H96.2293V18.35H96.2473C96.4273 18.062 96.6613 17.81 96.9493 17.594C97.6093 17.078 98.3893 16.82 99.2893 16.82C100.381 16.82 101.251 17.168 101.899 17.864C102.559 18.548 102.889 19.49 102.889 20.69V26H101.449V20.78C101.449 19.916 101.233 19.268 100.801 18.836C100.369 18.392 99.7753 18.17 99.0193 18.17C98.1913 18.17 97.5193 18.446 97.0033 18.998C96.4873 19.538 96.2293 20.252 96.2293 21.14V26H94.7893Z" fill="white"/>
</svg>
