<svg width="60" height="60" viewBox="0 0 60 60" fill="none" xmlns="http://www.w3.org/2000/svg">
<circle cx="30" cy="30" r="30" fill="#1B313E"/>
<path d="M15.2357 35.732C13.3817 33.842 12.4547 31.448 12.4547 28.55C12.4547 25.652 13.3817 23.267 15.2357 21.395C17.1077 19.505 19.4657 18.56 22.3097 18.56C25.4957 18.56 28.0067 19.712 29.8427 22.016C30.6527 23.006 31.2467 24.149 31.6247 25.445H29.1947C28.8167 24.545 28.3397 23.78 27.7637 23.15C26.3417 21.62 24.5237 20.855 22.3097 20.855C20.1317 20.855 18.3497 21.566 16.9637 22.988C15.5777 24.41 14.8847 26.264 14.8847 28.55C14.8847 30.836 15.5777 32.69 16.9637 34.112C18.3497 35.534 20.1317 36.245 22.3097 36.245C24.5597 36.245 26.4227 35.417 27.8987 33.761C28.4927 33.077 28.9697 32.24 29.3297 31.25H31.7597C31.3277 32.654 30.6977 33.869 29.8697 34.895C27.9797 37.325 25.4597 38.54 22.3097 38.54C19.4657 38.54 17.1077 37.604 15.2357 35.732Z" fill="white"/>
<path d="M33.1045 21.395V19.1H48.4945V21.395H42.0145V38H39.5845V21.395H33.1045Z" fill="white"/>
</svg>
